<?xml version="1.0" encoding="utf-8" standalone="no"?>
<!DOCTYPE svg PUBLIC "-//W3C//DTD SVG 1.1//EN"
  "http://www.w3.org/Graphics/SVG/1.1/DTD/svg11.dtd">
<svg xmlns:xlink="http://www.w3.org/1999/xlink" width="712.96875pt" height="318.274625pt" viewBox="0 0 712.96875 318.274625" xmlns="http://www.w3.org/2000/svg" version="1.1">
 <metadata>
  <rdf:RDF xmlns:dc="http://purl.org/dc/elements/1.1/" xmlns:cc="http://creativecommons.org/ns#" xmlns:rdf="http://www.w3.org/1999/02/22-rdf-syntax-ns#">
   <cc:Work>
    <dc:type rdf:resource="http://purl.org/dc/dcmitype/StillImage"/>
    <dc:date>2026-06-25T17:13:01.265400</dc:date>
    <dc:format>image/svg+xml</dc:format>
    <dc:creator>
     <cc:Agent>
      <dc:title>Matplotlib v3.6.3, https://matplotlib.org/</dc:title>
     </cc:Agent>
    </dc:creator>
   </cc:Work>
  </rdf:RDF>
 </metadata>
 <defs>
  <style type="text/css">*{stroke-linejoin: round; stroke-linecap: butt}</style>
 </defs>
 <g id="figure_1">
  <g id="patch_1">
   <path d="M 0 318.274625 
L 712.96875 318.274625 
L 712.96875 0 
L 0 0 
L 0 318.274625 
z
" style="fill: none"/>
  </g>
  <g id="axes_1">
   <g id="patch_2">
    <path d="M 52.1625 265.747125 
L 658.0625 265.747125 
L 658.0625 33.903125 
L 52.1625 33.903125 
L 52.1625 265.747125 
z
" style="fill: none"/>
   </g>
   <g id="matplotlib.axis_1">
    <g id="xtick_1">
     <g id="line2d_1">
      <path d="M 79.703409 265.747125 
L 79.703409 33.903125 
" clip-path="url(#pd9d9ed777c)" style="fill: none; stroke-dasharray: 2.96,1.28; stroke-dashoffset: 0; stroke: #2d2d2d; stroke-opacity: 0.5; stroke-width: 0.8"/>
     </g>
     <g id="line2d_2">
      <defs>
       <path id="meabdbd6af0" d="M 0 0 
L 0 3.5 
" style="stroke: #888888; stroke-width: 0.8"/>
      </defs>
      <g>
       <use xlink:href="#meabdbd6af0" x="79.703409" y="265.747125" style="fill: #888888; stroke: #888888; stroke-width: 0.8"/>
      </g>
     </g>
     <g id="text_1">
      <!-- 06-22 -->
      <g style="fill: #888888" transform="translate(66.21044 279.603375) scale(0.1 -0.1)">
       <defs>
        <path id="WenQuanYiZenHei-30" d="M 3581 2175 
Q 3581 1288 3169 638 
Q 2713 -63 1938 -63 
Q 1025 -63 563 831 
Q 256 1425 256 2188 
Q 256 3188 700 3819 
Q 1138 4456 1888 4456 
Q 2863 4456 3306 3500 
Q 3581 2925 3581 2175 
z
M 3019 2100 
Q 3019 3356 2500 3806 
L 2350 3919 
Q 2144 4031 1888 4031 
Q 1100 4031 888 2956 
Q 819 2625 819 2225 
Q 819 1013 1338 569 
Q 1588 356 1938 356 
Q 2675 356 2925 1294 
Q 3019 1663 3019 2100 
z
" transform="scale(0.015625)"/>
        <path id="WenQuanYiZenHei-36" d="M 3550 1431 
Q 3550 725 3006 288 
Q 2581 -63 1994 -63 
Q 1013 -63 563 825 
Q 288 1363 288 2081 
Q 288 3294 856 3938 
Q 1319 4456 2075 4456 
Q 2969 4456 3363 3756 
Q 3431 3631 3481 3481 
L 2988 3350 
Q 2750 3994 2075 4006 
Q 1056 4006 844 2669 
Q 794 2356 794 1981 
L 806 1981 
Q 1006 2506 1544 2744 
Q 1819 2869 2119 2869 
Q 2788 2869 3213 2375 
Q 3550 1975 3550 1431 
z
M 3038 1406 
Q 3038 1906 2656 2213 
Q 2381 2431 2038 2431 
Q 1525 2431 1181 2044 
Q 919 1744 919 1356 
Q 919 881 1344 581 
Q 1631 375 1981 375 
Q 2519 375 2838 781 
Q 3038 1050 3038 1406 
z
" transform="scale(0.015625)"/>
        <path id="WenQuanYiZenHei-2d" d="M 1363 1444 
L 0 1444 
L 0 1844 
L 1363 1844 
L 1363 1444 
z
" transform="scale(0.015625)"/>
        <path id="WenQuanYiZenHei-32" d="M 3488 0 
L 369 0 
L 369 456 
L 2150 1850 
Q 2931 2463 2931 3144 
Q 2931 3619 2488 3863 
Q 2231 4013 1931 4013 
Q 1425 4013 1113 3619 
Q 894 3356 881 3013 
L 369 3169 
Q 531 3981 1213 4300 
Q 1544 4456 1950 4456 
Q 2631 4456 3088 4044 
L 3225 3888 
L 3350 3706 
Q 3481 3444 3481 3144 
Q 3481 2313 2519 1569 
L 1069 456 
L 3488 456 
L 3488 0 
z
" transform="scale(0.015625)"/>
       </defs>
       <use xlink:href="#WenQuanYiZenHei-30"/>
       <use xlink:href="#WenQuanYiZenHei-36" x="59.960938"/>
       <use xlink:href="#WenQuanYiZenHei-2d" x="119.921875"/>
       <use xlink:href="#WenQuanYiZenHei-32" x="149.902344"/>
       <use xlink:href="#WenQuanYiZenHei-32" x="209.863281"/>
      </g>
      <!-- 12:30 -->
      <g style="fill: #888888" transform="translate(66.21044 289.491812) scale(0.1 -0.1)">
       <defs>
        <path id="WenQuanYiZenHei-31" d="M 3556 0 
L 488 0 
L 488 406 
L 1800 406 
L 1800 3725 
Q 1231 3125 588 2788 
L 588 3338 
Q 1456 3781 1931 4388 
L 2331 4388 
L 2331 406 
L 3556 406 
L 3556 0 
z
" transform="scale(0.015625)"/>
        <path id="WenQuanYiZenHei-3a" d="M 1344 2525 
L 631 2525 
L 631 3250 
L 1344 3250 
L 1344 2525 
z
M 1344 0 
L 631 0 
L 631 725 
L 1344 725 
L 1344 0 
z
" transform="scale(0.015625)"/>
        <path id="WenQuanYiZenHei-33" d="M 3588 1231 
Q 3588 494 2875 144 
Q 2450 -63 1925 -63 
Q 1044 -63 556 488 
Q 356 706 256 1000 
L 769 1169 
Q 994 375 1913 375 
Q 2631 375 2900 788 
Q 3019 975 3019 1231 
Q 3019 1638 2638 1881 
Q 2325 2081 1613 2069 
L 1338 2069 
L 1338 2494 
Q 1969 2494 2094 2506 
Q 2325 2544 2463 2613 
Q 2763 2756 2844 3100 
Q 2863 3169 2863 3244 
Q 2863 3744 2381 3944 
L 2163 4006 
Q 2056 4025 1931 4025 
Q 1388 4025 1075 3631 
Q 969 3488 906 3313 
L 419 3456 
Q 675 4150 1400 4369 
Q 1669 4456 1975 4456 
Q 2694 4456 3106 4050 
Q 3419 3744 3419 3275 
Q 3419 2813 3025 2513 
Q 2825 2356 2575 2319 
L 2575 2306 
Q 3181 2213 3450 1769 
Q 3588 1525 3588 1231 
z
" transform="scale(0.015625)"/>
       </defs>
       <use xlink:href="#WenQuanYiZenHei-31"/>
       <use xlink:href="#WenQuanYiZenHei-32" x="59.960938"/>
       <use xlink:href="#WenQuanYiZenHei-3a" x="119.921875"/>
       <use xlink:href="#WenQuanYiZenHei-33" x="149.902344"/>
       <use xlink:href="#WenQuanYiZenHei-30" x="209.863281"/>
      </g>
     </g>
    </g>
    <g id="xtick_2">
     <g id="line2d_3">
      <path d="M 171.506439 265.747125 
L 171.506439 33.903125 
" clip-path="url(#pd9d9ed777c)" style="fill: none; stroke-dasharray: 2.96,1.28; stroke-dashoffset: 0; stroke: #2d2d2d; stroke-opacity: 0.5; stroke-width: 0.8"/>
     </g>
     <g id="line2d_4">
      <g>
       <use xlink:href="#meabdbd6af0" x="171.506439" y="265.747125" style="fill: #888888; stroke: #888888; stroke-width: 0.8"/>
      </g>
     </g>
     <g id="text_2">
      <!-- 06-22 -->
      <g style="fill: #888888" transform="translate(158.013471 279.603375) scale(0.1 -0.1)">
       <use xlink:href="#WenQuanYiZenHei-30"/>
       <use xlink:href="#WenQuanYiZenHei-36" x="59.960938"/>
       <use xlink:href="#WenQuanYiZenHei-2d" x="119.921875"/>
       <use xlink:href="#WenQuanYiZenHei-32" x="149.902344"/>
       <use xlink:href="#WenQuanYiZenHei-32" x="209.863281"/>
      </g>
      <!-- 16:30 -->
      <g style="fill: #888888" transform="translate(158.013471 289.491812) scale(0.1 -0.1)">
       <use xlink:href="#WenQuanYiZenHei-31"/>
       <use xlink:href="#WenQuanYiZenHei-36" x="59.960938"/>
       <use xlink:href="#WenQuanYiZenHei-3a" x="119.921875"/>
       <use xlink:href="#WenQuanYiZenHei-33" x="149.902344"/>
       <use xlink:href="#WenQuanYiZenHei-30" x="209.863281"/>
      </g>
     </g>
    </g>
    <g id="xtick_3">
     <g id="line2d_5">
      <path d="M 263.30947 265.747125 
L 263.30947 33.903125 
" clip-path="url(#pd9d9ed777c)" style="fill: none; stroke-dasharray: 2.96,1.28; stroke-dashoffset: 0; stroke: #2d2d2d; stroke-opacity: 0.5; stroke-width: 0.8"/>
     </g>
     <g id="line2d_6">
      <g>
       <use xlink:href="#meabdbd6af0" x="263.30947" y="265.747125" style="fill: #888888; stroke: #888888; stroke-width: 0.8"/>
      </g>
     </g>
     <g id="text_3">
      <!-- 06-23 -->
      <g style="fill: #888888" transform="translate(249.816501 279.603375) scale(0.1 -0.1)">
       <use xlink:href="#WenQuanYiZenHei-30"/>
       <use xlink:href="#WenQuanYiZenHei-36" x="59.960938"/>
       <use xlink:href="#WenQuanYiZenHei-2d" x="119.921875"/>
       <use xlink:href="#WenQuanYiZenHei-32" x="149.902344"/>
       <use xlink:href="#WenQuanYiZenHei-33" x="209.863281"/>
      </g>
      <!-- 12:38 -->
      <g style="fill: #888888" transform="translate(249.816501 289.491812) scale(0.1 -0.1)">
       <defs>
        <path id="WenQuanYiZenHei-38" d="M 3619 1175 
Q 3619 431 2850 100 
Q 2444 -63 1944 -63 
Q 1231 -63 725 269 
Q 225 594 225 1125 
Q 225 1881 1269 2281 
Q 719 2481 519 2938 
Q 444 3119 444 3319 
Q 444 4000 1144 4294 
Q 1519 4456 1963 4456 
Q 2669 4456 3094 4094 
Q 3425 3813 3425 3369 
Q 3425 2638 2575 2356 
Q 3231 2056 3450 1725 
Q 3619 1488 3619 1175 
z
M 2944 3344 
Q 2944 3906 2288 4019 
Q 2138 4044 1969 4044 
Q 1438 4044 1163 3775 
Q 1000 3613 1000 3375 
Q 1000 2925 1594 2663 
Q 1756 2588 1931 2550 
Q 2581 2725 2788 2956 
Q 2944 3125 2944 3344 
z
M 3075 1094 
Q 3075 1738 1875 2050 
Q 1094 1881 850 1463 
Q 763 1313 763 1131 
Q 763 569 1456 406 
Q 1681 344 1944 344 
Q 2519 344 2850 619 
Q 3075 813 3075 1094 
z
" transform="scale(0.015625)"/>
       </defs>
       <use xlink:href="#WenQuanYiZenHei-31"/>
       <use xlink:href="#WenQuanYiZenHei-32" x="59.960938"/>
       <use xlink:href="#WenQuanYiZenHei-3a" x="119.921875"/>
       <use xlink:href="#WenQuanYiZenHei-33" x="149.902344"/>
       <use xlink:href="#WenQuanYiZenHei-38" x="209.863281"/>
      </g>
     </g>
    </g>
    <g id="xtick_4">
     <g id="line2d_7">
      <path d="M 355.1125 265.747125 
L 355.1125 33.903125 
" clip-path="url(#pd9d9ed777c)" style="fill: none; stroke-dasharray: 2.96,1.28; stroke-dashoffset: 0; stroke: #2d2d2d; stroke-opacity: 0.5; stroke-width: 0.8"/>
     </g>
     <g id="line2d_8">
      <g>
       <use xlink:href="#meabdbd6af0" x="355.1125" y="265.747125" style="fill: #888888; stroke: #888888; stroke-width: 0.8"/>
      </g>
     </g>
     <g id="text_4">
      <!-- 06-23 -->
      <g style="fill: #888888" transform="translate(341.619531 279.603375) scale(0.1 -0.1)">
       <use xlink:href="#WenQuanYiZenHei-30"/>
       <use xlink:href="#WenQuanYiZenHei-36" x="59.960938"/>
       <use xlink:href="#WenQuanYiZenHei-2d" x="119.921875"/>
       <use xlink:href="#WenQuanYiZenHei-32" x="149.902344"/>
       <use xlink:href="#WenQuanYiZenHei-33" x="209.863281"/>
      </g>
      <!-- 16:30 -->
      <g style="fill: #888888" transform="translate(341.619531 289.491812) scale(0.1 -0.1)">
       <use xlink:href="#WenQuanYiZenHei-31"/>
       <use xlink:href="#WenQuanYiZenHei-36" x="59.960938"/>
       <use xlink:href="#WenQuanYiZenHei-3a" x="119.921875"/>
       <use xlink:href="#WenQuanYiZenHei-33" x="149.902344"/>
       <use xlink:href="#WenQuanYiZenHei-30" x="209.863281"/>
      </g>
     </g>
    </g>
    <g id="xtick_5">
     <g id="line2d_9">
      <path d="M 446.91553 265.747125 
L 446.91553 33.903125 
" clip-path="url(#pd9d9ed777c)" style="fill: none; stroke-dasharray: 2.96,1.28; stroke-dashoffset: 0; stroke: #2d2d2d; stroke-opacity: 0.5; stroke-width: 0.8"/>
     </g>
     <g id="line2d_10">
      <g>
       <use xlink:href="#meabdbd6af0" x="446.91553" y="265.747125" style="fill: #888888; stroke: #888888; stroke-width: 0.8"/>
      </g>
     </g>
     <g id="text_5">
      <!-- 06-24 -->
      <g style="fill: #888888" transform="translate(433.422562 279.603375) scale(0.1 -0.1)">
       <defs>
        <path id="WenQuanYiZenHei-34" d="M 3631 1025 
L 2913 1025 
L 2913 0 
L 2381 0 
L 2381 1025 
L 219 1025 
L 219 1388 
L 2225 4388 
L 2913 4388 
L 2913 1444 
L 3631 1444 
L 3631 1025 
z
M 2381 1444 
L 2381 3963 
L 788 1444 
L 2381 1444 
z
" transform="scale(0.015625)"/>
       </defs>
       <use xlink:href="#WenQuanYiZenHei-30"/>
       <use xlink:href="#WenQuanYiZenHei-36" x="59.960938"/>
       <use xlink:href="#WenQuanYiZenHei-2d" x="119.921875"/>
       <use xlink:href="#WenQuanYiZenHei-32" x="149.902344"/>
       <use xlink:href="#WenQuanYiZenHei-34" x="209.863281"/>
      </g>
      <!-- 12:28 -->
      <g style="fill: #888888" transform="translate(433.422562 289.491812) scale(0.1 -0.1)">
       <use xlink:href="#WenQuanYiZenHei-31"/>
       <use xlink:href="#WenQuanYiZenHei-32" x="59.960938"/>
       <use xlink:href="#WenQuanYiZenHei-3a" x="119.921875"/>
       <use xlink:href="#WenQuanYiZenHei-32" x="149.902344"/>
       <use xlink:href="#WenQuanYiZenHei-38" x="209.863281"/>
      </g>
     </g>
    </g>
    <g id="xtick_6">
     <g id="line2d_11">
      <path d="M 538.718561 265.747125 
L 538.718561 33.903125 
" clip-path="url(#pd9d9ed777c)" style="fill: none; stroke-dasharray: 2.96,1.28; stroke-dashoffset: 0; stroke: #2d2d2d; stroke-opacity: 0.5; stroke-width: 0.8"/>
     </g>
     <g id="line2d_12">
      <g>
       <use xlink:href="#meabdbd6af0" x="538.718561" y="265.747125" style="fill: #888888; stroke: #888888; stroke-width: 0.8"/>
      </g>
     </g>
     <g id="text_6">
      <!-- 06-24 -->
      <g style="fill: #888888" transform="translate(525.225592 279.603375) scale(0.1 -0.1)">
       <use xlink:href="#WenQuanYiZenHei-30"/>
       <use xlink:href="#WenQuanYiZenHei-36" x="59.960938"/>
       <use xlink:href="#WenQuanYiZenHei-2d" x="119.921875"/>
       <use xlink:href="#WenQuanYiZenHei-32" x="149.902344"/>
       <use xlink:href="#WenQuanYiZenHei-34" x="209.863281"/>
      </g>
      <!-- 16:28 -->
      <g style="fill: #888888" transform="translate(525.225592 289.491812) scale(0.1 -0.1)">
       <use xlink:href="#WenQuanYiZenHei-31"/>
       <use xlink:href="#WenQuanYiZenHei-36" x="59.960938"/>
       <use xlink:href="#WenQuanYiZenHei-3a" x="119.921875"/>
       <use xlink:href="#WenQuanYiZenHei-32" x="149.902344"/>
       <use xlink:href="#WenQuanYiZenHei-38" x="209.863281"/>
      </g>
     </g>
    </g>
    <g id="xtick_7">
     <g id="line2d_13">
      <path d="M 630.521591 265.747125 
L 630.521591 33.903125 
" clip-path="url(#pd9d9ed777c)" style="fill: none; stroke-dasharray: 2.96,1.28; stroke-dashoffset: 0; stroke: #2d2d2d; stroke-opacity: 0.5; stroke-width: 0.8"/>
     </g>
     <g id="line2d_14">
      <g>
       <use xlink:href="#meabdbd6af0" x="630.521591" y="265.747125" style="fill: #888888; stroke: #888888; stroke-width: 0.8"/>
      </g>
     </g>
     <g id="text_7">
      <!-- 06-25 -->
      <g style="fill: #888888" transform="translate(617.028622 279.603375) scale(0.1 -0.1)">
       <defs>
        <path id="WenQuanYiZenHei-35" d="M 3531 1488 
Q 3531 688 2913 250 
Q 2456 -63 1844 -63 
Q 1175 -63 706 350 
Q 413 613 306 975 
L 781 1131 
Q 1000 538 1569 406 
Q 1706 369 1856 369 
Q 2550 369 2850 869 
Q 3000 1131 3000 1494 
Q 3000 2056 2581 2356 
Q 2319 2538 1969 2538 
Q 1400 2538 1031 2075 
Q 981 2013 938 1938 
L 500 2031 
L 644 4388 
L 3244 4388 
L 3200 3919 
L 1044 3919 
L 950 2500 
Q 1431 2975 2006 2975 
Q 2713 2975 3163 2475 
Q 3531 2063 3531 1488 
z
" transform="scale(0.015625)"/>
       </defs>
       <use xlink:href="#WenQuanYiZenHei-30"/>
       <use xlink:href="#WenQuanYiZenHei-36" x="59.960938"/>
       <use xlink:href="#WenQuanYiZenHei-2d" x="119.921875"/>
       <use xlink:href="#WenQuanYiZenHei-32" x="149.902344"/>
       <use xlink:href="#WenQuanYiZenHei-35" x="209.863281"/>
      </g>
      <!-- 12:30 -->
      <g style="fill: #888888" transform="translate(617.028622 289.491812) scale(0.1 -0.1)">
       <use xlink:href="#WenQuanYiZenHei-31"/>
       <use xlink:href="#WenQuanYiZenHei-32" x="59.960938"/>
       <use xlink:href="#WenQuanYiZenHei-3a" x="119.921875"/>
       <use xlink:href="#WenQuanYiZenHei-33" x="149.902344"/>
       <use xlink:href="#WenQuanYiZenHei-30" x="209.863281"/>
      </g>
     </g>
    </g>
    <g id="text_8">
     <!-- 时间 (BJT) -->
     <g style="fill: #e0e0e0" transform="translate(333.021875 309.36525) scale(0.1 -0.1)">
      <defs>
       <path id="WenQuanYiZenHei-65f6" d="M 3594 1119 
Q 3250 1863 2819 2556 
L 3238 2813 
Q 3681 2094 4038 1331 
L 3594 1119 
z
M 4744 144 
L 4744 3400 
L 3369 3400 
Q 3019 3400 2669 3381 
Q 2688 3569 2669 3756 
Q 3019 3744 3369 3744 
L 4744 3744 
L 4744 4356 
Q 4744 4806 4719 5256 
Q 4969 5231 5213 5256 
Q 5188 4806 5188 4356 
L 5188 3744 
L 5488 3744 
Q 5838 3744 6188 3756 
Q 6169 3569 6188 3381 
Q 5838 3400 5488 3400 
L 5188 3400 
L 5188 -31 
Q 5188 -475 4938 -644 
Q 4675 -825 4056 -819 
Q 4125 -513 3913 -275 
Q 4106 -300 4353 -303 
Q 4600 -306 4672 -247 
Q 4744 -188 4744 144 
z
M 975 219 
L 425 219 
L 425 4700 
L 2406 4700 
L 2406 219 
L 1863 219 
L 1863 588 
L 975 588 
L 975 219 
z
M 1863 2806 
L 1863 4381 
L 975 4381 
L 975 2806 
L 1863 2806 
z
M 1863 2488 
L 975 2488 
L 975 906 
L 1863 906 
L 1863 2488 
z
" transform="scale(0.015625)"/>
       <path id="WenQuanYiZenHei-95f4" d="M 2313 363 
L 1869 363 
L 1869 3631 
L 4319 3631 
L 4319 363 
L 3875 363 
L 3875 681 
L 2313 681 
L 2313 363 
z
M 3875 2338 
L 3875 3288 
L 2313 3288 
L 2313 2338 
L 3875 2338 
z
M 3875 1994 
L 2313 1994 
L 2313 1025 
L 3875 1025 
L 3875 1994 
z
M 4638 -794 
Q 4688 -456 4494 -256 
Q 4688 -281 4944 -284 
Q 5200 -288 5269 -234 
Q 5338 -181 5338 119 
L 5338 4394 
L 2988 4394 
Q 2650 4394 2319 4375 
Q 2338 4556 2319 4738 
Q 2650 4725 2988 4725 
L 5775 4725 
L 5775 -44 
Q 5775 -563 5369 -706 
Q 5025 -819 4638 -794 
z
M 950 -844 
Q 706 -819 469 -844 
Q 488 -400 488 44 
L 488 3413 
Q 488 3863 469 4306 
Q 706 4281 950 4306 
Q 931 3863 931 3413 
L 931 44 
Q 931 -400 950 -844 
z
M 1713 3913 
Q 1363 4444 944 4906 
L 1300 5231 
Q 1744 4738 2113 4181 
L 1713 3913 
z
" transform="scale(0.015625)"/>
       <path id="WenQuanYiZenHei-20" transform="scale(0.015625)"/>
       <path id="WenQuanYiZenHei-28" d="M 1606 -1094 
L 1275 -1094 
Q 475 -100 338 1231 
Q 319 1438 319 1656 
Q 319 3031 1156 4244 
Q 1213 4313 1269 4388 
L 1600 4388 
Q 806 3169 794 1681 
Q 794 188 1606 -1094 
z
" transform="scale(0.015625)"/>
       <path id="WenQuanYiZenHei-42" d="M 3675 1213 
Q 3675 613 3250 281 
Q 2913 13 2313 0 
L 2169 0 
L 519 0 
L 519 4388 
L 2175 4388 
Q 2706 4388 2981 4244 
Q 3025 4219 3081 4188 
Q 3531 3881 3538 3319 
Q 3538 2744 3088 2463 
L 2888 2375 
Q 2831 2350 2763 2338 
L 2763 2325 
Q 3313 2206 3550 1725 
Q 3675 1494 3675 1213 
z
M 2994 3250 
Q 2994 3856 2313 3938 
Q 2225 3944 2131 3944 
L 1069 3944 
L 1069 2506 
L 1981 2506 
Q 2994 2506 2994 3250 
z
M 3125 1238 
Q 3125 1638 2838 1894 
Q 2825 1906 2806 1919 
Q 2588 2088 2113 2088 
L 1069 2088 
L 1069 469 
L 2144 469 
Q 2975 469 3106 1038 
Q 3125 1125 3125 1238 
z
" transform="scale(0.015625)"/>
       <path id="WenQuanYiZenHei-4a" d="M 2069 1431 
Q 2069 263 1294 13 
Q 1056 -63 750 -63 
Q 431 -63 106 25 
L 106 475 
Q 419 413 675 413 
Q 1269 413 1419 738 
Q 1519 938 1519 1431 
L 1519 4388 
L 2069 4388 
L 2069 1431 
z
" transform="scale(0.015625)"/>
       <path id="WenQuanYiZenHei-54" d="M 3119 3913 
L 1869 3913 
L 1869 0 
L 1319 0 
L 1319 3913 
L 69 3913 
L 69 4388 
L 3119 4388 
L 3119 3913 
z
" transform="scale(0.015625)"/>
       <path id="WenQuanYiZenHei-29" d="M 1600 1656 
Q 1600 306 869 -788 
Q 769 -950 644 -1094 
L 313 -1094 
Q 1125 188 1125 1681 
Q 1125 3169 338 4363 
Q 325 4375 319 4388 
L 650 4388 
Q 1525 3231 1594 1863 
Q 1600 1763 1600 1656 
z
" transform="scale(0.015625)"/>
      </defs>
      <use xlink:href="#WenQuanYiZenHei-65f6"/>
      <use xlink:href="#WenQuanYiZenHei-95f4" x="100"/>
      <use xlink:href="#WenQuanYiZenHei-20" x="200"/>
      <use xlink:href="#WenQuanYiZenHei-28" x="229.980469"/>
      <use xlink:href="#WenQuanYiZenHei-42" x="259.960938"/>
      <use xlink:href="#WenQuanYiZenHei-4a" x="321.875"/>
      <use xlink:href="#WenQuanYiZenHei-54" x="361.816406"/>
      <use xlink:href="#WenQuanYiZenHei-29" x="411.816406"/>
     </g>
    </g>
   </g>
   <g id="matplotlib.axis_2">
    <g id="ytick_1">
     <g id="line2d_15">
      <path d="M 52.1625 255.208761 
L 658.0625 255.208761 
" clip-path="url(#pd9d9ed777c)" style="fill: none; stroke-dasharray: 2.96,1.28; stroke-dashoffset: 0; stroke: #2d2d2d; stroke-opacity: 0.5; stroke-width: 0.8"/>
     </g>
     <g id="line2d_16">
      <defs>
       <path id="m00dafb6f62" d="M 0 0 
L -3.5 0 
" style="stroke: #888888; stroke-width: 0.8"/>
      </defs>
      <g>
       <use xlink:href="#m00dafb6f62" x="52.1625" y="255.208761" style="fill: #888888; stroke: #888888; stroke-width: 0.8"/>
      </g>
     </g>
     <g id="text_9">
      <!-- 0 -->
      <g style="fill: #00e676" transform="translate(39.165625 258.636886) scale(0.1 -0.1)">
       <use xlink:href="#WenQuanYiZenHei-30"/>
      </g>
     </g>
    </g>
    <g id="ytick_2">
     <g id="line2d_17">
      <path d="M 52.1625 213.055307 
L 658.0625 213.055307 
" clip-path="url(#pd9d9ed777c)" style="fill: none; stroke-dasharray: 2.96,1.28; stroke-dashoffset: 0; stroke: #2d2d2d; stroke-opacity: 0.5; stroke-width: 0.8"/>
     </g>
     <g id="line2d_18">
      <g>
       <use xlink:href="#m00dafb6f62" x="52.1625" y="213.055307" style="fill: #888888; stroke: #888888; stroke-width: 0.8"/>
      </g>
     </g>
     <g id="text_10">
      <!-- 20 -->
      <g style="fill: #00e676" transform="translate(33.16875 216.483432) scale(0.1 -0.1)">
       <use xlink:href="#WenQuanYiZenHei-32"/>
       <use xlink:href="#WenQuanYiZenHei-30" x="59.960938"/>
      </g>
     </g>
    </g>
    <g id="ytick_3">
     <g id="line2d_19">
      <path d="M 52.1625 170.901852 
L 658.0625 170.901852 
" clip-path="url(#pd9d9ed777c)" style="fill: none; stroke-dasharray: 2.96,1.28; stroke-dashoffset: 0; stroke: #2d2d2d; stroke-opacity: 0.5; stroke-width: 0.8"/>
     </g>
     <g id="line2d_20">
      <g>
       <use xlink:href="#m00dafb6f62" x="52.1625" y="170.901852" style="fill: #888888; stroke: #888888; stroke-width: 0.8"/>
      </g>
     </g>
     <g id="text_11">
      <!-- 40 -->
      <g style="fill: #00e676" transform="translate(33.16875 174.329977) scale(0.1 -0.1)">
       <use xlink:href="#WenQuanYiZenHei-34"/>
       <use xlink:href="#WenQuanYiZenHei-30" x="59.960938"/>
      </g>
     </g>
    </g>
    <g id="ytick_4">
     <g id="line2d_21">
      <path d="M 52.1625 128.748398 
L 658.0625 128.748398 
" clip-path="url(#pd9d9ed777c)" style="fill: none; stroke-dasharray: 2.96,1.28; stroke-dashoffset: 0; stroke: #2d2d2d; stroke-opacity: 0.5; stroke-width: 0.8"/>
     </g>
     <g id="line2d_22">
      <g>
       <use xlink:href="#m00dafb6f62" x="52.1625" y="128.748398" style="fill: #888888; stroke: #888888; stroke-width: 0.8"/>
      </g>
     </g>
     <g id="text_12">
      <!-- 60 -->
      <g style="fill: #00e676" transform="translate(33.16875 132.176523) scale(0.1 -0.1)">
       <use xlink:href="#WenQuanYiZenHei-36"/>
       <use xlink:href="#WenQuanYiZenHei-30" x="59.960938"/>
      </g>
     </g>
    </g>
    <g id="ytick_5">
     <g id="line2d_23">
      <path d="M 52.1625 86.594943 
L 658.0625 86.594943 
" clip-path="url(#pd9d9ed777c)" style="fill: none; stroke-dasharray: 2.96,1.28; stroke-dashoffset: 0; stroke: #2d2d2d; stroke-opacity: 0.5; stroke-width: 0.8"/>
     </g>
     <g id="line2d_24">
      <g>
       <use xlink:href="#m00dafb6f62" x="52.1625" y="86.594943" style="fill: #888888; stroke: #888888; stroke-width: 0.8"/>
      </g>
     </g>
     <g id="text_13">
      <!-- 80 -->
      <g style="fill: #00e676" transform="translate(33.16875 90.023068) scale(0.1 -0.1)">
       <use xlink:href="#WenQuanYiZenHei-38"/>
       <use xlink:href="#WenQuanYiZenHei-30" x="59.960938"/>
      </g>
     </g>
    </g>
    <g id="ytick_6">
     <g id="line2d_25">
      <path d="M 52.1625 44.441489 
L 658.0625 44.441489 
" clip-path="url(#pd9d9ed777c)" style="fill: none; stroke-dasharray: 2.96,1.28; stroke-dashoffset: 0; stroke: #2d2d2d; stroke-opacity: 0.5; stroke-width: 0.8"/>
     </g>
     <g id="line2d_26">
      <g>
       <use xlink:href="#m00dafb6f62" x="52.1625" y="44.441489" style="fill: #888888; stroke: #888888; stroke-width: 0.8"/>
      </g>
     </g>
     <g id="text_14">
      <!-- 100 -->
      <g style="fill: #00e676" transform="translate(27.171875 47.869614) scale(0.1 -0.1)">
       <use xlink:href="#WenQuanYiZenHei-31"/>
       <use xlink:href="#WenQuanYiZenHei-30" x="59.960938"/>
       <use xlink:href="#WenQuanYiZenHei-30" x="119.921875"/>
      </g>
     </g>
    </g>
    <g id="text_15">
     <!-- 获利盘比例 (%) -->
     <g style="fill: #00e676" transform="translate(15.4625 182.818875) rotate(-90) scale(0.1 -0.1)">
      <defs>
       <path id="WenQuanYiZenHei-83b7" d="M 5531 2900 
L 5188 2581 
L 4544 3263 
L 4888 3588 
L 5531 2900 
z
M 2231 -488 
Q 1981 -775 1256 -756 
Q 1325 -456 1113 -238 
Q 1306 -256 1578 -259 
Q 1850 -263 1890 -225 
Q 1931 -188 1931 -31 
L 1931 1506 
Q 1463 819 563 100 
Q 456 300 250 400 
Q 888 869 1425 1606 
L 1813 2169 
L 1663 2331 
Q 1113 1956 406 1619 
Q 344 1838 163 1975 
Q 788 2256 1344 2669 
L 1169 2856 
L 731 3300 
Q 863 3406 975 3531 
Q 1175 3294 1394 3069 
L 1594 2856 
Q 1906 3106 2313 3481 
Q 2463 3294 2644 3144 
Q 2313 2813 1913 2513 
L 2363 2038 
L 2363 -150 
Q 2363 -306 2275 -438 
Q 2925 -188 3338 413 
Q 3788 1056 3756 1994 
L 3119 1994 
Q 2806 1994 2494 1975 
Q 2513 2144 2494 2313 
Q 2806 2300 3119 2300 
L 3756 2300 
L 3756 2450 
Q 3756 2881 3731 3319 
Q 3969 3294 4206 3319 
Q 4181 2881 4181 2450 
L 4181 2300 
L 5481 2300 
Q 5794 2300 6106 2313 
Q 6088 2144 6106 1975 
Q 5794 1994 5481 1994 
L 4544 1994 
Q 4638 1081 5022 531 
Q 5406 -19 6075 -319 
Q 5844 -431 5738 -663 
Q 5119 -363 4709 300 
Q 4300 963 4181 1756 
Q 4163 913 3728 222 
Q 3294 -469 2550 -819 
Q 2456 -588 2231 -488 
z
M 4419 3644 
Q 4169 3669 3919 3644 
Q 3938 3944 3938 4225 
L 2138 4225 
Q 2138 3938 2156 3644 
Q 1906 3669 1656 3644 
Q 1675 3944 1675 4225 
L 844 4225 
Q 481 4225 113 4206 
Q 138 4400 113 4588 
Q 481 4575 844 4575 
L 1681 4575 
Q 1675 4925 1656 5275 
Q 1906 5250 2156 5275 
Q 2138 4906 2131 4575 
L 3944 4575 
Q 3938 4925 3919 5275 
Q 4169 5250 4419 5275 
Q 4400 4906 4394 4575 
L 5406 4575 
Q 5769 4575 6138 4588 
Q 6113 4400 6138 4206 
Q 5769 4225 5406 4225 
L 4394 4225 
Q 4400 3938 4419 3644 
z
" transform="scale(0.015625)"/>
       <path id="WenQuanYiZenHei-5229" d="M 1038 2931 
Q 688 2931 338 2913 
Q 363 3106 338 3294 
Q 688 3275 1038 3275 
L 1731 3275 
L 1731 4281 
Q 1169 4119 500 3981 
Q 488 4213 344 4400 
Q 1263 4569 2219 4950 
L 3025 5288 
Q 3100 5050 3225 4838 
Q 2719 4600 2175 4419 
L 2175 3275 
L 2819 3275 
Q 3169 3275 3519 3294 
Q 3500 3106 3519 2913 
Q 3169 2931 2819 2931 
L 2175 2931 
L 2175 2856 
Q 2825 2200 3413 1475 
L 3031 1169 
Q 2619 1675 2175 2150 
L 2175 138 
Q 2175 -313 2194 -769 
Q 1950 -738 1706 -769 
Q 1731 -313 1731 138 
L 1731 2075 
Q 1206 919 431 163 
Q 269 388 0 469 
Q 888 1281 1250 2106 
Q 1394 2438 1550 2931 
L 1038 2931 
z
M 4756 -888 
Q 4806 -544 4606 -350 
Q 4806 -375 5059 -378 
Q 5313 -381 5388 -325 
Q 5463 -269 5463 38 
L 5463 4181 
Q 5463 4631 5444 5075 
Q 5688 5050 5931 5075 
Q 5913 4631 5913 4181 
L 5913 -106 
Q 5913 -656 5500 -800 
Q 5150 -913 4756 -888 
z
M 4613 756 
Q 4369 781 4119 756 
Q 4144 1200 4144 1650 
L 4144 3269 
Q 4144 3713 4119 4163 
Q 4369 4138 4613 4163 
Q 4588 3713 4588 3269 
L 4588 1650 
Q 4588 1200 4613 756 
z
" transform="scale(0.015625)"/>
       <path id="WenQuanYiZenHei-76d8" d="M 881 3063 
Q 575 3063 275 3050 
Q 294 3213 275 3375 
Q 575 3363 881 3363 
L 1594 3363 
L 1594 4663 
Q 1944 4663 2294 4663 
Q 2475 4806 2600 5163 
Q 2819 5075 3050 5038 
Q 3000 4838 2875 4663 
L 4719 4663 
L 4719 3363 
L 5294 3363 
Q 5594 3363 5900 3375 
Q 5881 3213 5900 3050 
Q 5594 3063 5294 3063 
L 4719 3063 
L 4719 1981 
Q 4719 1744 4550 1575 
Q 4306 1350 3663 1363 
Q 3731 1650 3531 1875 
Q 3706 1856 3956 1853 
Q 4206 1850 4253 1887 
Q 4300 1925 4300 2113 
L 4300 3063 
L 2894 3063 
L 3500 2344 
L 3144 2044 
L 2469 2850 
L 2719 3063 
L 2019 3063 
L 2019 2675 
Q 2025 2075 1581 1603 
Q 1138 1131 538 981 
Q 488 1244 263 1388 
Q 819 1450 1209 1828 
Q 1600 2206 1600 2669 
L 1594 3063 
L 881 3063 
z
M 2444 4369 
L 2019 4369 
L 2019 3363 
L 3131 3363 
L 2444 4131 
L 2706 4369 
L 2594 4369 
Q 2544 4325 2488 4288 
Q 2469 4325 2444 4369 
z
M 4300 3363 
L 4300 4369 
L 2856 4369 
L 3494 3656 
L 3163 3363 
L 4300 3363 
z
M 6138 -381 
Q 6119 -550 6138 -719 
Q 5813 -706 5494 -706 
L 925 -706 
Q 600 -706 275 -719 
Q 294 -550 275 -381 
L 1013 -400 
L 1013 1150 
L 5156 1150 
L 5156 -400 
L 5494 -400 
Q 5813 -400 6138 -381 
z
M 3850 -400 
L 4725 -400 
L 4725 844 
L 3850 844 
L 3850 -400 
z
M 3413 -400 
L 3413 844 
L 2650 844 
L 2650 -400 
L 3413 -400 
z
M 2213 -400 
L 2213 844 
L 1450 844 
Q 1450 406 1450 -400 
L 2213 -400 
z
" transform="scale(0.015625)"/>
       <path id="WenQuanYiZenHei-6bd4" d="M 3738 350 
Q 3738 225 3800 137 
Q 3863 50 3963 50 
L 5288 50 
Q 5406 56 5438 169 
Q 5475 275 5488 406 
L 5606 1244 
Q 5813 1106 6056 1106 
L 5863 -113 
Q 5838 -256 5750 -350 
Q 5706 -381 5644 -381 
L 3956 -381 
Q 3656 -381 3462 -181 
Q 3269 19 3269 350 
L 3269 4313 
Q 3269 4788 3250 5256 
Q 3500 5231 3756 5256 
Q 3738 4788 3738 4313 
L 3738 2625 
Q 4206 2869 4581 3187 
Q 4956 3506 5363 3963 
Q 5544 3781 5756 3638 
Q 5013 2713 3738 2113 
L 3738 350 
z
M 2875 3088 
Q 2850 2869 2875 2650 
Q 2475 2675 2075 2675 
L 1075 2675 
L 1075 6 
L 2756 1331 
L 2950 975 
Q 2763 850 2581 706 
L 794 -825 
L 519 -450 
Q 613 -200 613 63 
L 613 4188 
Q 613 4663 588 5138 
Q 844 5106 1100 5138 
Q 1075 4663 1075 4188 
L 1075 3069 
L 2075 3069 
Q 2475 3069 2875 3088 
z
" transform="scale(0.015625)"/>
       <path id="WenQuanYiZenHei-4f8b" d="M 5419 119 
L 5419 4100 
Q 5419 4544 5400 4988 
Q 5638 4963 5881 4988 
Q 5863 4544 5863 4100 
L 5863 -50 
Q 5863 -469 5619 -644 
Q 5369 -825 4763 -819 
Q 4831 -519 4625 -288 
Q 4813 -306 5047 -309 
Q 5281 -313 5350 -259 
Q 5419 -206 5419 119 
z
M 4919 688 
Q 4681 713 4438 688 
Q 4456 1131 4456 1581 
L 4456 3013 
Q 4456 3463 4438 3906 
Q 4681 3881 4919 3906 
Q 4900 3463 4900 3013 
L 4900 1581 
Q 4900 1131 4919 688 
z
M 1644 -369 
Q 2688 144 3188 1200 
Q 2863 1731 2444 2194 
Q 2206 1713 1919 1306 
Q 1719 1494 1450 1531 
Q 2188 2500 2425 3369 
Q 2531 3756 2625 4300 
Q 2344 4294 2069 4281 
Q 2088 4463 2069 4644 
Q 2406 4631 2744 4631 
L 3644 4631 
Q 3981 4631 4313 4644 
Q 4294 4463 4313 4281 
Q 3981 4300 3644 4300 
L 3106 4300 
Q 3013 3788 2875 3319 
L 3988 3319 
L 3888 2306 
Q 3819 1706 3725 1419 
Q 3281 -6 2088 -663 
Q 1894 -475 1644 -369 
z
M 3388 1775 
Q 3519 2256 3588 2988 
L 2769 2988 
Q 2713 2825 2650 2675 
Q 3063 2256 3388 1775 
z
M 1869 4925 
Q 1650 4075 1294 3338 
L 1294 31 
Q 1294 -413 1313 -850 
Q 1113 -825 913 -850 
Q 931 -413 931 31 
L 931 2681 
Q 663 2269 338 1931 
Q 213 2156 0 2256 
Q 294 2544 550 2875 
Q 975 3425 1156 3950 
Q 1325 4469 1444 5050 
Q 1644 4963 1869 4925 
z
" transform="scale(0.015625)"/>
       <path id="WenQuanYiZenHei-25" d="M 4313 1075 
Q 4313 469 3963 150 
L 3819 38 
Q 3713 -19 3594 -44 
L 3406 -63 
Q 2850 -63 2613 488 
Q 2494 756 2494 1075 
Q 2494 1719 2863 2038 
Q 3081 2219 3394 2219 
Q 3969 2219 4206 1650 
Q 4313 1394 4313 1075 
z
M 3394 1894 
Q 2888 1894 2888 1075 
Q 2888 388 3263 281 
Q 3325 263 3406 263 
Q 3825 263 3913 831 
Q 3925 938 3925 1044 
Q 3925 1894 3394 1894 
z
M 3800 4388 
L 1144 0 
L 681 0 
L 3338 4388 
L 3800 4388 
z
M 1981 3306 
Q 1981 2700 1631 2381 
Q 1406 2169 1075 2169 
Q 519 2169 281 2719 
Q 169 2988 169 3306 
Q 169 3956 531 4269 
Q 750 4456 1063 4456 
Q 1638 4456 1875 3888 
Q 1981 3631 1981 3306 
z
M 1063 4125 
Q 556 4125 556 3306 
Q 556 2625 938 2513 
Q 1000 2494 1075 2494 
Q 1500 2494 1581 3063 
Q 1594 3169 1594 3275 
Q 1594 4125 1063 4125 
z
" transform="scale(0.015625)"/>
      </defs>
      <use xlink:href="#WenQuanYiZenHei-83b7"/>
      <use xlink:href="#WenQuanYiZenHei-5229" x="100"/>
      <use xlink:href="#WenQuanYiZenHei-76d8" x="200"/>
      <use xlink:href="#WenQuanYiZenHei-6bd4" x="300"/>
      <use xlink:href="#WenQuanYiZenHei-4f8b" x="400"/>
      <use xlink:href="#WenQuanYiZenHei-20" x="500"/>
      <use xlink:href="#WenQuanYiZenHei-28" x="529.980469"/>
      <use xlink:href="#WenQuanYiZenHei-25" x="559.960938"/>
      <use xlink:href="#WenQuanYiZenHei-29" x="629.882812"/>
     </g>
    </g>
   </g>
   <g id="line2d_27">
    <path d="M 79.703409 247.410372 
L 171.506439 231.813594 
L 263.30947 243.827329 
L 355.1125 251.41495 
L 446.91553 253.311856 
L 538.718561 252.890321 
L 630.521591 252.25802 
" clip-path="url(#pd9d9ed777c)" style="fill: none; stroke: #00e676; stroke-width: 2.5; stroke-linecap: square"/>
    <defs>
     <path id="m5bb48ac7e1" d="M 0 3 
C 0.795609 3 1.55874 2.683901 2.12132 2.12132 
C 2.683901 1.55874 3 0.795609 3 0 
C 3 -0.795609 2.683901 -1.55874 2.12132 -2.12132 
C 1.55874 -2.683901 0.795609 -3 0 -3 
C -0.795609 -3 -1.55874 -2.683901 -2.12132 -2.12132 
C -2.683901 -1.55874 -3 -0.795609 -3 0 
C -3 0.795609 -2.683901 1.55874 -2.12132 2.12132 
C -1.55874 2.683901 -0.795609 3 0 3 
z
" style="stroke: #00e676"/>
    </defs>
    <g clip-path="url(#pd9d9ed777c)">
     <use xlink:href="#m5bb48ac7e1" x="79.703409" y="247.410372" style="fill: #00e676; stroke: #00e676"/>
     <use xlink:href="#m5bb48ac7e1" x="171.506439" y="231.813594" style="fill: #00e676; stroke: #00e676"/>
     <use xlink:href="#m5bb48ac7e1" x="263.30947" y="243.827329" style="fill: #00e676; stroke: #00e676"/>
     <use xlink:href="#m5bb48ac7e1" x="355.1125" y="251.41495" style="fill: #00e676; stroke: #00e676"/>
     <use xlink:href="#m5bb48ac7e1" x="446.91553" y="253.311856" style="fill: #00e676; stroke: #00e676"/>
     <use xlink:href="#m5bb48ac7e1" x="538.718561" y="252.890321" style="fill: #00e676; stroke: #00e676"/>
     <use xlink:href="#m5bb48ac7e1" x="630.521591" y="252.25802" style="fill: #00e676; stroke: #00e676"/>
    </g>
   </g>
   <g id="patch_3">
    <path d="M 52.1625 265.747125 
L 52.1625 33.903125 
" style="fill: none; stroke: #2d2d2d; stroke-width: 0.8; stroke-linejoin: miter; stroke-linecap: square"/>
   </g>
   <g id="patch_4">
    <path d="M 658.0625 265.747125 
L 658.0625 33.903125 
" style="fill: none; stroke: #2d2d2d; stroke-width: 0.8; stroke-linejoin: miter; stroke-linecap: square"/>
   </g>
   <g id="patch_5">
    <path d="M 52.1625 265.747125 
L 658.0625 265.747125 
" style="fill: none; stroke: #2d2d2d; stroke-width: 0.8; stroke-linejoin: miter; stroke-linecap: square"/>
   </g>
   <g id="patch_6">
    <path d="M 52.1625 33.903125 
L 658.0625 33.903125 
" style="fill: none; stroke: #2d2d2d; stroke-width: 0.8; stroke-linejoin: miter; stroke-linecap: square"/>
   </g>
   <g id="legend_1">
    <g id="patch_7">
     <path d="M 59.1625 71.651562 
L 157.15 71.651562 
Q 159.15 71.651562 159.15 69.651562 
L 159.15 40.903125 
Q 159.15 38.903125 157.15 38.903125 
L 59.1625 38.903125 
Q 57.1625 38.903125 57.1625 40.903125 
L 57.1625 69.651562 
Q 57.1625 71.651562 59.1625 71.651562 
z
" style="fill: #1e1e1e; opacity: 0.8; stroke: #2d2d2d; stroke-linejoin: miter"/>
    </g>
    <g id="line2d_28">
     <path d="M 61.1625 47.665625 
L 71.1625 47.665625 
L 81.1625 47.665625 
" style="fill: none; stroke: #00e676; stroke-width: 2.5; stroke-linecap: square"/>
     <g>
      <use xlink:href="#m5bb48ac7e1" x="71.1625" y="47.665625" style="fill: #00e676; stroke: #00e676"/>
     </g>
    </g>
    <g id="text_16">
     <!-- 获利盘比例 (%) -->
     <g style="fill: #e0e0e0" transform="translate(89.1625 51.165625) scale(0.1 -0.1)">
      <use xlink:href="#WenQuanYiZenHei-83b7"/>
      <use xlink:href="#WenQuanYiZenHei-5229" x="100"/>
      <use xlink:href="#WenQuanYiZenHei-76d8" x="200"/>
      <use xlink:href="#WenQuanYiZenHei-6bd4" x="300"/>
      <use xlink:href="#WenQuanYiZenHei-4f8b" x="400"/>
      <use xlink:href="#WenQuanYiZenHei-20" x="500"/>
      <use xlink:href="#WenQuanYiZenHei-28" x="529.980469"/>
      <use xlink:href="#WenQuanYiZenHei-25" x="559.960938"/>
      <use xlink:href="#WenQuanYiZenHei-29" x="629.882812"/>
     </g>
    </g>
    <g id="line2d_29">
     <path d="M 61.1625 62.442187 
L 71.1625 62.442187 
L 81.1625 62.442187 
" style="fill: none; stroke-dasharray: 5.55,2.4; stroke-dashoffset: 0; stroke: #ffb300; stroke-width: 1.5"/>
     <defs>
      <path id="m797bc43998" d="M -3 3 
L 3 3 
L 3 -3 
L -3 -3 
z
" style="stroke: #ffb300; stroke-linejoin: miter"/>
     </defs>
     <g>
      <use xlink:href="#m797bc43998" x="71.1625" y="62.442187" style="fill: #ffb300; stroke: #ffb300; stroke-linejoin: miter"/>
     </g>
    </g>
    <g id="text_17">
     <!-- 收盘价 (元) -->
     <g style="fill: #e0e0e0" transform="translate(89.1625 65.942187) scale(0.1 -0.1)">
      <defs>
       <path id="WenQuanYiZenHei-6536" d="M 2081 -769 
Q 1831 -744 1581 -769 
Q 1606 -313 1606 144 
L 1606 1281 
Q 1119 1113 394 744 
L 250 1175 
Q 313 1288 313 1425 
L 313 3106 
Q 313 3569 294 4025 
Q 544 4000 788 4025 
Q 769 3569 769 3106 
L 769 1375 
L 1606 1663 
L 1606 4119 
Q 1606 4575 1581 5038 
Q 1831 5006 2081 5038 
Q 2056 4575 2056 4119 
L 2056 144 
Q 2056 -313 2081 -769 
z
M 3375 5031 
Q 3625 4963 3913 4944 
Q 3781 4400 3613 3869 
L 3588 3781 
L 5200 3781 
Q 5563 3781 5925 3800 
Q 5906 3600 5925 3406 
L 5175 3419 
Q 5106 1925 4488 888 
Q 5125 106 6175 -306 
Q 5950 -438 5850 -694 
Q 4875 -288 4256 519 
Q 3575 -469 2406 -906 
Q 2338 -613 2144 -438 
Q 3338 -44 3981 913 
Q 3413 1806 3281 2963 
Q 3044 2381 2638 1806 
Q 2450 1981 2150 2025 
Q 2431 2406 2737 2937 
Q 3044 3469 3178 3991 
Q 3313 4513 3375 5031 
z
M 3663 3419 
Q 3675 2794 3831 2244 
Q 3988 1694 4206 1300 
Q 4650 2181 4681 3419 
L 3663 3419 
z
" transform="scale(0.015625)"/>
       <path id="WenQuanYiZenHei-4ef7" d="M 4931 -769 
Q 4688 -744 4438 -769 
Q 4463 -313 4463 144 
L 4463 1888 
Q 4463 2344 4438 2806 
Q 4688 2781 4931 2806 
Q 4913 2344 4913 1888 
L 4913 144 
Q 4913 -313 4931 -769 
z
M 3025 956 
L 3025 1875 
Q 3025 2331 3006 2788 
Q 3256 2763 3500 2788 
Q 3481 2331 3481 1875 
L 3481 956 
Q 3481 338 3068 -156 
Q 2656 -650 2075 -831 
Q 2013 -563 1775 -413 
Q 2294 -331 2659 59 
Q 3025 450 3025 956 
z
M 6163 2794 
Q 5931 2656 5844 2400 
Q 5281 2613 4750 3094 
Q 4219 3575 3919 4219 
Q 3050 2600 1638 1881 
Q 1544 2144 1313 2300 
Q 2188 2713 2841 3438 
Q 3494 4163 3738 5125 
Q 3988 5013 4256 4950 
Q 4206 4831 4156 4719 
Q 4475 3756 5238 3256 
Q 5656 2969 6163 2794 
z
M 2213 4919 
Q 1944 4006 1500 3219 
L 1500 94 
Q 1500 -381 1519 -850 
Q 1281 -825 1044 -850 
Q 1063 -381 1063 94 
L 1063 2550 
Q 756 2150 381 1819 
Q 238 2063 -13 2181 
Q 306 2438 581 2738 
Q 1081 3269 1306 3800 
Q 1544 4394 1706 5056 
Q 1944 4963 2213 4919 
z
" transform="scale(0.015625)"/>
       <path id="WenQuanYiZenHei-5143" d="M 3575 2825 
L 2500 2825 
L 2500 1431 
Q 2500 1013 2303 628 
Q 2106 244 1769 -63 
Q 1256 -531 581 -700 
Q 519 -406 263 -256 
Q 950 -169 1490 315 
Q 2031 800 2031 1431 
L 2031 2825 
L 1238 2825 
Q 838 2825 438 2806 
Q 463 3019 438 3238 
Q 838 3219 1238 3219 
L 5156 3219 
Q 5556 3219 5956 3238 
Q 5931 3019 5956 2806 
Q 5556 2825 5156 2825 
L 4044 2825 
L 4044 150 
Q 4044 -275 4269 -275 
L 5306 -269 
Q 5394 -269 5419 -203 
Q 5444 -138 5450 -106 
L 5625 956 
Q 5831 813 6075 806 
L 5831 -519 
Q 5813 -600 5772 -650 
Q 5731 -700 5650 -700 
L 4263 -700 
Q 3944 -700 3759 -456 
Q 3575 -213 3575 150 
L 3575 2825 
z
M 5250 5000 
Q 5225 4781 5250 4569 
Q 4850 4588 4450 4588 
L 1944 4588 
Q 1544 4588 1144 4569 
Q 1169 4781 1144 5000 
Q 1544 4981 1944 4981 
L 4450 4981 
Q 4850 4981 5250 5000 
z
" transform="scale(0.015625)"/>
      </defs>
      <use xlink:href="#WenQuanYiZenHei-6536"/>
      <use xlink:href="#WenQuanYiZenHei-76d8" x="100"/>
      <use xlink:href="#WenQuanYiZenHei-4ef7" x="200"/>
      <use xlink:href="#WenQuanYiZenHei-20" x="300"/>
      <use xlink:href="#WenQuanYiZenHei-28" x="329.980469"/>
      <use xlink:href="#WenQuanYiZenHei-5143" x="359.960938"/>
      <use xlink:href="#WenQuanYiZenHei-29" x="459.960938"/>
     </g>
    </g>
   </g>
  </g>
  <g id="axes_2">
   <g id="matplotlib.axis_3">
    <g id="ytick_7">
     <g id="line2d_30">
      <defs>
       <path id="mf86e0e2ba8" d="M 0 0 
L 3.5 0 
" style="stroke: #888888; stroke-width: 0.8"/>
      </defs>
      <g>
       <use xlink:href="#mf86e0e2ba8" x="658.0625" y="251.197244" style="fill: #888888; stroke: #888888; stroke-width: 0.8"/>
      </g>
     </g>
     <g id="text_18">
      <!-- 12.4 -->
      <g style="fill: #ffb300" transform="translate(665.0625 254.625369) scale(0.1 -0.1)">
       <defs>
        <path id="WenQuanYiZenHei-2e" d="M 1344 0 
L 631 0 
L 631 725 
L 1344 725 
L 1344 0 
z
" transform="scale(0.015625)"/>
       </defs>
       <use xlink:href="#WenQuanYiZenHei-31"/>
       <use xlink:href="#WenQuanYiZenHei-32" x="59.960938"/>
       <use xlink:href="#WenQuanYiZenHei-2e" x="119.921875"/>
       <use xlink:href="#WenQuanYiZenHei-34" x="149.902344"/>
      </g>
     </g>
    </g>
    <g id="ytick_8">
     <g id="line2d_31">
      <g>
       <use xlink:href="#mf86e0e2ba8" x="658.0625" y="203.492718" style="fill: #888888; stroke: #888888; stroke-width: 0.8"/>
      </g>
     </g>
     <g id="text_19">
      <!-- 12.6 -->
      <g style="fill: #ffb300" transform="translate(665.0625 206.920843) scale(0.1 -0.1)">
       <use xlink:href="#WenQuanYiZenHei-31"/>
       <use xlink:href="#WenQuanYiZenHei-32" x="59.960938"/>
       <use xlink:href="#WenQuanYiZenHei-2e" x="119.921875"/>
       <use xlink:href="#WenQuanYiZenHei-36" x="149.902344"/>
      </g>
     </g>
    </g>
    <g id="ytick_9">
     <g id="line2d_32">
      <g>
       <use xlink:href="#mf86e0e2ba8" x="658.0625" y="155.788191" style="fill: #888888; stroke: #888888; stroke-width: 0.8"/>
      </g>
     </g>
     <g id="text_20">
      <!-- 12.8 -->
      <g style="fill: #ffb300" transform="translate(665.0625 159.216316) scale(0.1 -0.1)">
       <use xlink:href="#WenQuanYiZenHei-31"/>
       <use xlink:href="#WenQuanYiZenHei-32" x="59.960938"/>
       <use xlink:href="#WenQuanYiZenHei-2e" x="119.921875"/>
       <use xlink:href="#WenQuanYiZenHei-38" x="149.902344"/>
      </g>
     </g>
    </g>
    <g id="ytick_10">
     <g id="line2d_33">
      <g>
       <use xlink:href="#mf86e0e2ba8" x="658.0625" y="108.083664" style="fill: #888888; stroke: #888888; stroke-width: 0.8"/>
      </g>
     </g>
     <g id="text_21">
      <!-- 13.0 -->
      <g style="fill: #ffb300" transform="translate(665.0625 111.511789) scale(0.1 -0.1)">
       <use xlink:href="#WenQuanYiZenHei-31"/>
       <use xlink:href="#WenQuanYiZenHei-33" x="59.960938"/>
       <use xlink:href="#WenQuanYiZenHei-2e" x="119.921875"/>
       <use xlink:href="#WenQuanYiZenHei-30" x="149.902344"/>
      </g>
     </g>
    </g>
    <g id="ytick_11">
     <g id="line2d_34">
      <g>
       <use xlink:href="#mf86e0e2ba8" x="658.0625" y="60.379137" style="fill: #888888; stroke: #888888; stroke-width: 0.8"/>
      </g>
     </g>
     <g id="text_22">
      <!-- 13.2 -->
      <g style="fill: #ffb300" transform="translate(665.0625 63.807262) scale(0.1 -0.1)">
       <use xlink:href="#WenQuanYiZenHei-31"/>
       <use xlink:href="#WenQuanYiZenHei-33" x="59.960938"/>
       <use xlink:href="#WenQuanYiZenHei-2e" x="119.921875"/>
       <use xlink:href="#WenQuanYiZenHei-32" x="149.902344"/>
      </g>
     </g>
    </g>
    <g id="text_23">
     <!-- 股价 (元) -->
     <g style="fill: #ffb300" transform="translate(704.059375 169.322781) rotate(-90) scale(0.1 -0.1)">
      <defs>
       <path id="WenQuanYiZenHei-80a1" d="M 3456 5069 
L 5250 5069 
L 5188 3500 
Q 5194 3450 5250 3450 
L 6050 3463 
Q 6038 3288 6050 3119 
L 5244 3119 
Q 5050 3119 4928 3284 
Q 4806 3450 4806 3675 
L 4806 4738 
L 3900 4738 
Q 3950 3763 3744 3138 
Q 3656 2894 3500 2688 
Q 3763 2681 4019 2681 
L 5563 2681 
Q 5513 1438 4725 488 
Q 5294 -106 6163 -344 
Q 5950 -494 5881 -750 
Q 5019 -506 4438 181 
Q 3756 -469 2850 -713 
Q 2725 -475 2519 -300 
Q 3475 -138 4169 538 
Q 3663 1313 3506 2338 
Q 3431 2338 3350 2331 
Q 3356 2419 3356 2513 
L 3281 2438 
Q 3125 2650 2875 2713 
Q 3456 3113 3456 4025 
Q 3456 4550 3456 5069 
z
M 5088 2350 
L 3906 2350 
Q 4050 1450 4450 844 
Q 4975 1513 5088 2350 
z
M 2250 3600 
L 2250 4625 
L 1300 4625 
L 1300 3600 
L 2250 3600 
z
M 2250 2038 
L 2250 3256 
L 1300 3256 
L 1300 2038 
L 2250 2038 
z
M 1744 -894 
Q 1794 -531 1600 -313 
Q 1731 -350 1881 -369 
Q 2144 -375 2194 -325 
Q 2250 -231 2250 138 
L 2250 1694 
L 1300 1694 
L 1300 1119 
Q 1294 -181 513 -738 
Q 381 -513 125 -425 
Q 869 -50 856 1119 
L 856 4975 
L 2694 4975 
L 2694 -119 
Q 2694 -463 2531 -650 
Q 2300 -881 1744 -894 
z
" transform="scale(0.015625)"/>
      </defs>
      <use xlink:href="#WenQuanYiZenHei-80a1"/>
      <use xlink:href="#WenQuanYiZenHei-4ef7" x="100"/>
      <use xlink:href="#WenQuanYiZenHei-20" x="200"/>
      <use xlink:href="#WenQuanYiZenHei-28" x="229.980469"/>
      <use xlink:href="#WenQuanYiZenHei-5143" x="259.960938"/>
      <use xlink:href="#WenQuanYiZenHei-29" x="359.960938"/>
     </g>
    </g>
   </g>
   <g id="line2d_35">
    <path d="M 79.703409 165.329096 
L 171.506439 53.223458 
L 263.30947 146.247285 
L 355.1125 201.107491 
L 446.91553 246.426792 
L 538.718561 239.271113 
L 630.521591 239.271113 
" clip-path="url(#pd9d9ed777c)" style="fill: none; stroke-dasharray: 5.55,2.4; stroke-dashoffset: 0; stroke: #ffb300; stroke-width: 1.5"/>
    <g clip-path="url(#pd9d9ed777c)">
     <use xlink:href="#m797bc43998" x="79.703409" y="165.329096" style="fill: #ffb300; stroke: #ffb300; stroke-linejoin: miter"/>
     <use xlink:href="#m797bc43998" x="171.506439" y="53.223458" style="fill: #ffb300; stroke: #ffb300; stroke-linejoin: miter"/>
     <use xlink:href="#m797bc43998" x="263.30947" y="146.247285" style="fill: #ffb300; stroke: #ffb300; stroke-linejoin: miter"/>
     <use xlink:href="#m797bc43998" x="355.1125" y="201.107491" style="fill: #ffb300; stroke: #ffb300; stroke-linejoin: miter"/>
     <use xlink:href="#m797bc43998" x="446.91553" y="246.426792" style="fill: #ffb300; stroke: #ffb300; stroke-linejoin: miter"/>
     <use xlink:href="#m797bc43998" x="538.718561" y="239.271113" style="fill: #ffb300; stroke: #ffb300; stroke-linejoin: miter"/>
     <use xlink:href="#m797bc43998" x="630.521591" y="239.271113" style="fill: #ffb300; stroke: #ffb300; stroke-linejoin: miter"/>
    </g>
   </g>
   <g id="patch_8">
    <path d="M 52.1625 265.747125 
L 52.1625 33.903125 
" style="fill: none; stroke: #2d2d2d; stroke-width: 0.8; stroke-linejoin: miter; stroke-linecap: square"/>
   </g>
   <g id="patch_9">
    <path d="M 658.0625 265.747125 
L 658.0625 33.903125 
" style="fill: none; stroke: #2d2d2d; stroke-width: 0.8; stroke-linejoin: miter; stroke-linecap: square"/>
   </g>
   <g id="patch_10">
    <path d="M 52.1625 265.747125 
L 658.0625 265.747125 
" style="fill: none; stroke: #2d2d2d; stroke-width: 0.8; stroke-linejoin: miter; stroke-linecap: square"/>
   </g>
   <g id="patch_11">
    <path d="M 52.1625 33.903125 
L 658.0625 33.903125 
" style="fill: none; stroke: #2d2d2d; stroke-width: 0.8; stroke-linejoin: miter; stroke-linecap: square"/>
   </g>
   <g id="text_24">
    <!-- 隆基绿能 筹码分布与股价走势 (近 7 次跟踪) -->
    <g style="fill: #e0e0e0" transform="translate(219.32125 18.903125) scale(0.14 -0.14)">
     <defs>
      <path id="WenQuanYiZenHei-9686" d="M 5963 -244 
Q 5944 -406 5963 -569 
Q 5656 -556 5356 -556 
L 2681 -556 
Q 2381 -556 2081 -569 
Q 2094 -406 2081 -244 
Q 2381 -256 2681 -256 
L 3813 -256 
L 3813 313 
L 3319 313 
Q 3019 313 2713 294 
Q 2731 456 2713 625 
Q 3019 606 3319 606 
L 3813 606 
L 3813 1175 
L 2950 1175 
Q 2613 675 2081 131 
Q 1950 313 1738 381 
Q 2088 719 2344 1094 
Q 2600 1469 2906 2063 
Q 3106 1944 3325 1863 
Q 3231 1644 3138 1475 
L 3813 1475 
Q 3806 1725 3794 1981 
Q 4025 1956 4263 1981 
Q 4250 1725 4244 1475 
L 5063 1475 
Q 5363 1475 5663 1488 
Q 5650 1325 5663 1163 
Q 5363 1175 5063 1175 
L 4238 1175 
L 4238 606 
L 4919 606 
Q 5225 606 5525 625 
Q 5506 456 5525 294 
Q 5225 313 4919 313 
L 4238 313 
L 4238 -256 
L 5356 -256 
Q 5656 -256 5963 -244 
z
M 5200 2444 
Q 5181 2281 5200 2119 
Q 4900 2131 4594 2131 
L 3444 2131 
Q 3144 2131 2838 2119 
Q 2856 2256 2844 2394 
Q 2581 2338 2313 2319 
Q 2231 2563 2069 2763 
Q 3019 2738 3813 3256 
Q 3419 3631 3113 4131 
Q 2750 3606 2306 3088 
Q 2163 3256 1944 3313 
Q 2431 3850 2831 4544 
L 3175 5175 
Q 3369 5050 3588 4969 
Q 3506 4788 3413 4619 
L 5413 4619 
Q 5106 3813 4469 3231 
Q 4700 3088 5000 2988 
Q 5525 2819 6075 2856 
Q 5925 2650 5938 2400 
Q 4963 2363 4144 2969 
Q 3631 2606 3025 2438 
L 4594 2431 
Q 4900 2431 5200 2444 
z
M 3444 4319 
Q 3750 3813 4119 3488 
Q 4531 3844 4794 4319 
L 3444 4319 
z
M 719 -850 
Q 513 -825 306 -850 
Q 325 -419 325 19 
L 319 4938 
L 1994 4938 
L 1994 4625 
Q 1894 4513 1831 4375 
L 1306 3238 
Q 1925 2319 1925 1156 
Q 1894 400 1381 163 
L 1244 88 
Q 1138 300 1000 481 
Q 1144 538 1281 606 
Q 1556 744 1581 1156 
Q 1581 1744 1409 2300 
Q 1238 2856 913 3313 
L 1525 4625 
L 694 4625 
L 700 19 
Q 700 -419 719 -850 
z
" transform="scale(0.015625)"/>
      <path id="WenQuanYiZenHei-57fa" d="M 5769 -225 
Q 5750 -388 5769 -556 
Q 5469 -538 5163 -538 
L 1381 -538 
Q 1081 -538 775 -556 
Q 794 -394 775 -225 
Q 1081 -244 1381 -244 
L 2975 -244 
L 2975 569 
L 2281 569 
Q 1975 569 1675 550 
Q 1694 719 1675 881 
Q 1975 863 2281 863 
L 2975 863 
Q 2969 1263 2950 1663 
Q 3181 1638 3419 1663 
Q 3400 1263 3394 863 
L 4181 863 
Q 4481 863 4781 881 
Q 4763 719 4781 550 
Q 4481 569 4181 569 
L 3394 569 
L 3394 -244 
L 5163 -244 
Q 5469 -244 5769 -225 
z
M 881 1925 
Q 581 1925 275 1913 
Q 294 2075 275 2238 
Q 581 2225 881 2225 
L 1825 2225 
L 1825 4325 
L 1131 4325 
Q 831 4325 525 4313 
Q 544 4475 525 4638 
Q 831 4625 1131 4625 
L 1825 4625 
Q 1819 4944 1806 5263 
Q 2038 5238 2269 5263 
Q 2256 4944 2250 4625 
L 4163 4625 
Q 4156 4931 4144 5231 
Q 4375 5206 4606 5231 
Q 4594 4931 4588 4625 
L 5281 4625 
Q 5581 4625 5888 4638 
Q 5869 4475 5888 4313 
Q 5581 4325 5281 4325 
L 4588 4325 
L 4588 2225 
L 5444 2225 
Q 5744 2225 6050 2238 
Q 6031 2075 6050 1913 
Q 5744 1925 5444 1925 
L 4369 1925 
Q 4725 1488 5109 1244 
Q 5494 1000 6100 844 
Q 5900 694 5844 444 
Q 5288 600 4769 1009 
Q 4250 1419 3881 1925 
L 2519 1925 
Q 1844 813 388 238 
Q 344 456 175 606 
Q 725 806 1140 1122 
Q 1556 1438 1969 1925 
L 881 1925 
z
M 4163 4325 
L 2250 4325 
L 2250 3825 
L 3725 3825 
Q 3944 3825 4163 3838 
L 4163 4325 
z
M 4163 3025 
L 4163 3544 
Q 3944 3556 3725 3556 
L 2250 3556 
L 2250 3025 
L 4163 3025 
z
M 4163 2225 
L 4163 2750 
L 2250 2750 
L 2250 2225 
L 4163 2225 
z
" transform="scale(0.015625)"/>
      <path id="WenQuanYiZenHei-7eff" d="M 5519 2438 
Q 5675 2263 5869 2125 
Q 5481 1669 4694 1256 
Q 4625 1469 4444 1606 
Q 4838 1781 5194 2119 
L 5519 2438 
z
M 1863 494 
Q 2519 675 3038 950 
L 3600 1263 
L 3663 1006 
Q 2656 413 2125 31 
Q 2063 300 1863 494 
z
M 3225 1281 
Q 2775 1669 2269 1981 
L 2519 2375 
Q 3050 2044 3525 1638 
L 3225 1281 
z
M 3744 -19 
L 3744 2581 
L 2794 2581 
Q 2488 2581 2188 2569 
Q 2206 2731 2188 2894 
Q 2488 2881 2794 2881 
L 4869 2881 
L 4869 3613 
L 3519 3613 
Q 3213 3613 2913 3600 
Q 2931 3763 2913 3925 
Q 3213 3913 3519 3913 
L 4869 3913 
L 4869 4519 
L 3263 4519 
Q 2956 4519 2656 4500 
Q 2675 4669 2656 4831 
Q 2956 4813 3263 4813 
L 5294 4813 
L 5294 2881 
L 6144 2894 
Q 6131 2731 6144 2569 
Q 5844 2581 5544 2581 
L 4163 2581 
L 4163 1500 
Q 4488 1013 4944 716 
Q 5400 419 6131 263 
Q 5931 100 5888 -150 
Q 5419 -44 4966 231 
Q 4513 506 4163 888 
L 4163 -175 
Q 4163 -531 3888 -675 
Q 3600 -819 3081 -813 
Q 3144 -519 2944 -300 
Q 3125 -319 3384 -322 
Q 3644 -325 3694 -281 
Q 3744 -238 3744 -19 
z
M 300 -244 
Q 281 50 150 244 
Q 469 281 853 378 
Q 1238 475 2125 819 
L 2138 575 
Q 1294 225 941 62 
Q 588 -100 300 -244 
z
M 956 5044 
Q 1150 4963 1375 4919 
Q 1344 4794 1284 4619 
Q 1225 4444 940 3787 
Q 656 3131 550 2919 
L 1156 2994 
Q 1463 3525 1600 3988 
Q 1781 3863 1994 3781 
Q 1931 3619 1825 3422 
Q 1719 3225 1281 2512 
Q 844 1800 688 1575 
L 1425 1700 
L 1700 1781 
L 1700 1488 
L 1463 1456 
L 163 1194 
L 125 1469 
Q 219 1500 294 1588 
Q 588 1963 1006 2719 
L 100 2581 
L 69 2856 
Q 163 2881 213 2969 
Q 369 3244 606 3856 
Q 894 4563 956 5044 
z
" transform="scale(0.015625)"/>
      <path id="WenQuanYiZenHei-80fd" d="M 4000 -6 
Q 4000 -125 4056 -212 
Q 4113 -300 4206 -300 
L 5531 -294 
Q 5675 -294 5725 -69 
L 5831 475 
Q 6025 369 6244 350 
L 6069 -375 
Q 6006 -669 5825 -669 
L 4200 -669 
Q 3919 -669 3744 -487 
Q 3569 -306 3569 -6 
L 3569 1350 
Q 3569 1788 3550 2225 
Q 3781 2200 4019 2225 
Q 4000 1788 4000 1350 
L 4000 956 
Q 4431 1106 4825 1322 
Q 5219 1538 5713 1881 
Q 5831 1675 5988 1500 
Q 5200 900 4000 513 
L 4000 -6 
z
M 4000 2969 
Q 4000 2863 4056 2784 
Q 4113 2706 4206 2706 
L 5531 2706 
Q 5675 2706 5725 2938 
L 5831 3481 
Q 6025 3369 6244 3350 
L 6069 2631 
Q 6006 2338 5825 2338 
L 4200 2338 
Q 3900 2338 3734 2516 
Q 3569 2694 3569 2969 
L 3569 4250 
Q 3569 4681 3550 5119 
Q 3781 5094 4019 5119 
Q 4000 4681 4000 4250 
L 4000 3856 
Q 4431 4006 4822 4215 
Q 5213 4425 5719 4763 
Q 5831 4550 5988 4375 
Q 5206 3800 4000 3413 
L 4000 2969 
z
M 2444 69 
L 2444 638 
L 919 638 
L 919 188 
Q 919 -244 938 -681 
Q 706 -656 469 -681 
Q 488 -244 488 188 
L 488 2919 
L 2875 2913 
L 2875 -81 
Q 2850 -475 2556 -606 
Q 2313 -725 1994 -725 
Q 2050 -419 1863 -169 
Q 1981 -200 2113 -225 
Q 2363 -231 2403 -193 
Q 2444 -156 2444 69 
z
M 1544 5269 
Q 1731 5094 1956 4963 
Q 1813 4788 806 3688 
L 2369 3725 
Q 2150 4019 1919 4300 
L 2281 4600 
Q 2763 4025 3163 3394 
L 2769 3144 
L 2575 3438 
L 2294 3444 
L 169 3356 
L 156 3663 
Q 269 3656 350 3744 
Q 531 3938 959 4466 
Q 1388 4994 1544 5269 
z
M 2444 1938 
L 2444 2606 
L 919 2606 
Q 919 2269 919 1938 
L 2444 1938 
z
M 2444 944 
L 2444 1625 
L 919 1625 
L 919 944 
L 2444 944 
z
" transform="scale(0.015625)"/>
      <path id="WenQuanYiZenHei-7b79" d="M 2163 731 
Q 2181 888 2163 1044 
Q 2450 1031 2731 1031 
L 4325 1031 
Q 4319 1331 4306 1631 
Q 4531 1606 4756 1631 
Q 4744 1331 4738 1031 
L 5444 1031 
Q 5731 1031 6013 1044 
Q 6000 888 6013 731 
Q 5731 750 5444 750 
L 4738 750 
L 4738 -256 
Q 4738 -419 4650 -537 
Q 4563 -656 4419 -719 
Q 4163 -831 3819 -831 
Q 3875 -550 3700 -325 
Q 3850 -344 4040 -350 
Q 4231 -356 4278 -331 
Q 4325 -306 4325 -156 
L 4325 750 
L 2919 750 
L 3263 69 
L 2856 -138 
L 2444 681 
L 2569 744 
Q 2363 744 2163 731 
z
M 5169 3238 
Q 5450 3238 5731 3250 
Q 5719 3094 5731 2944 
Q 5450 2956 5169 2956 
L 3194 2956 
Q 3106 2719 3006 2494 
L 4863 2494 
Q 5119 2494 5381 2506 
Q 5363 2363 5381 2225 
Q 5119 2238 4863 2238 
L 2888 2238 
Q 2800 2063 2706 1894 
L 5600 1894 
Q 5856 1894 6119 1906 
Q 6100 1763 6119 1625 
Q 5856 1638 5600 1638 
L 2550 1638 
Q 1713 294 425 -419 
Q 331 -181 113 -44 
Q 681 263 1203 694 
Q 1725 1125 2075 1638 
L 1088 1638 
Q 831 1638 569 1625 
Q 588 1763 569 1906 
Q 831 1894 1088 1894 
L 2238 1894 
Q 2331 2056 2406 2238 
L 1619 2238 
Q 1363 2238 1100 2225 
Q 1119 2363 1100 2506 
Q 1363 2494 1619 2494 
L 2506 2494 
Q 2594 2713 2675 2956 
L 1375 2956 
Q 1094 2956 806 2944 
Q 825 3094 806 3250 
Q 1094 3238 1375 3238 
L 2769 3238 
Q 2850 3488 2888 3656 
Q 3125 3581 3375 3550 
Q 3338 3394 3288 3238 
L 5169 3238 
z
M 3975 5188 
Q 4181 5125 4425 5100 
Q 4350 4850 4225 4619 
L 5538 4619 
Q 5831 4619 6125 4631 
Q 6106 4506 6125 4381 
Q 5831 4394 5538 4394 
L 4675 4394 
L 5038 3756 
L 4613 3613 
L 4231 4294 
L 4531 4394 
L 4094 4394 
Q 3763 3906 3306 3506 
Q 3175 3638 2956 3688 
Q 3675 4281 3975 5188 
z
M 1425 5206 
Q 1619 5125 1850 5075 
Q 1731 4831 1581 4594 
L 2869 4594 
Q 3163 4594 3450 4600 
Q 3438 4481 3450 4356 
Q 3163 4369 2869 4369 
L 2056 4369 
L 2363 3625 
L 1919 3513 
L 1581 4344 
L 1675 4369 
L 1431 4369 
Q 1025 3813 544 3306 
Q 400 3425 169 3463 
Q 719 4000 1138 4700 
L 1425 5206 
z
" transform="scale(0.015625)"/>
      <path id="WenQuanYiZenHei-7801" d="M 5431 1213 
Q 5413 1031 5431 850 
Q 5094 863 4756 863 
L 3188 863 
Q 2856 863 2519 850 
Q 2538 1031 2519 1213 
Q 2856 1194 3188 1194 
L 4756 1194 
Q 5094 1194 5431 1213 
z
M 5631 -63 
L 5631 2025 
L 3144 2025 
L 3306 3488 
Q 3356 3931 3381 4375 
Q 3619 4325 3863 4325 
Q 3794 3881 3744 3438 
L 3625 2356 
L 4744 2356 
L 5044 4656 
L 3581 4656 
Q 3244 4656 2906 4638 
Q 2925 4819 2906 5000 
Q 3244 4981 3581 4981 
L 5525 4981 
L 5188 2356 
L 6075 2356 
L 6075 -188 
Q 6075 -431 5888 -600 
Q 5631 -831 4938 -819 
Q 5006 -513 4788 -288 
Q 4988 -306 5263 -309 
Q 5538 -313 5584 -275 
Q 5631 -238 5631 -63 
z
M 694 3006 
L 694 3069 
L 719 3069 
Q 913 3606 1031 4400 
L 300 4381 
Q 319 4563 300 4744 
Q 638 4731 975 4731 
L 1925 4731 
Q 2263 4731 2600 4744 
Q 2581 4563 2600 4381 
Q 2263 4400 1925 4400 
L 1494 4400 
Q 1463 3750 1206 3063 
L 2406 3063 
L 2406 6 
L 1963 6 
L 1963 575 
L 1138 575 
L 1138 6 
L 694 6 
L 694 2019 
Q 600 1856 494 1700 
Q 325 1863 94 1894 
Q 475 2413 694 3006 
z
M 1963 2738 
L 1138 2738 
L 1138 906 
L 1963 906 
L 1963 2738 
z
" transform="scale(0.015625)"/>
      <path id="WenQuanYiZenHei-5206" d="M 2088 2169 
Q 1688 2169 1288 2150 
Q 1306 2363 1288 2581 
Q 1688 2563 2088 2563 
L 4819 2563 
L 4819 -169 
Q 4819 -425 4619 -600 
Q 4350 -844 3613 -838 
Q 3688 -513 3456 -269 
Q 3669 -294 3956 -297 
Q 4244 -300 4297 -259 
Q 4350 -219 4350 -31 
L 4350 2169 
L 2931 2169 
Q 2875 1131 2315 309 
Q 1756 -513 881 -813 
Q 681 -519 338 -406 
Q 706 -375 1078 -165 
Q 1450 44 1753 375 
Q 2056 706 2247 1181 
Q 2438 1656 2431 2169 
L 2088 2169 
z
M 6150 2500 
Q 5900 2381 5788 2131 
Q 4863 2606 4306 3450 
Q 3819 4175 3550 5050 
L 3956 5163 
Q 4356 3781 5294 3031 
Q 5694 2719 6150 2500 
z
M 2106 5050 
Q 2369 4944 2650 4900 
Q 2350 4044 1863 3313 
Q 1306 2469 456 1913 
Q 331 2175 75 2313 
Q 831 2769 1338 3381 
Q 1550 3638 1669 3881 
Q 1931 4438 2106 5050 
z
" transform="scale(0.015625)"/>
      <path id="WenQuanYiZenHei-5e03" d="M 3850 -769 
Q 3600 -744 3344 -769 
Q 3369 -306 3369 163 
L 3369 2319 
L 2094 2319 
L 2094 813 
Q 2094 350 2119 -113 
Q 1863 -88 1613 -113 
Q 1638 350 1638 813 
L 1638 1869 
Q 1094 1206 475 706 
Q 325 950 63 1063 
Q 1000 1800 1631 2625 
L 1638 2694 
L 1688 2694 
Q 2075 3206 2313 3775 
L 1169 3775 
Q 788 3775 406 3756 
Q 431 3963 406 4169 
Q 788 4150 1169 4150 
L 2475 4150 
Q 2719 4756 2838 5150 
Q 3094 5044 3369 4988 
Q 3213 4563 3025 4150 
L 5375 4150 
Q 5756 4150 6138 4169 
Q 6113 3963 6138 3756 
Q 5756 3775 5375 3775 
L 2850 3775 
Q 2569 3206 2238 2694 
L 3369 2694 
Q 3363 3038 3344 3381 
Q 3600 3356 3850 3381 
Q 3831 3038 3831 2694 
L 5544 2694 
L 5544 463 
Q 5544 281 5444 150 
Q 5344 19 5181 -50 
Q 4881 -175 4481 -175 
Q 4544 138 4344 388 
Q 4519 363 4766 356 
Q 5013 350 5050 387 
Q 5088 425 5088 569 
L 5088 2319 
L 3825 2319 
L 3825 163 
Q 3825 -306 3850 -769 
z
" transform="scale(0.015625)"/>
      <path id="WenQuanYiZenHei-4e0e" d="M 6138 4238 
Q 6113 4006 6138 3781 
Q 5719 3800 5294 3800 
L 1994 3800 
L 1994 2781 
L 5713 2781 
L 5488 -169 
Q 5469 -438 5278 -591 
Q 5088 -744 4863 -794 
Q 4606 -844 4069 -838 
Q 4113 -669 4059 -519 
Q 4006 -369 3894 -269 
Q 4150 -294 4509 -287 
Q 4869 -281 4944 -231 
Q 5013 -181 5025 13 
L 5206 2369 
L 1519 2369 
L 1519 4300 
Q 1519 4781 1500 5256 
Q 1756 5231 2019 5256 
Q 1994 4781 1994 4300 
L 1994 4219 
L 5294 4219 
Q 5719 4219 6138 4238 
z
M 4556 1469 
Q 4531 1244 4556 1013 
Q 4138 1031 3713 1031 
L 956 1031 
Q 531 1031 113 1013 
Q 138 1244 113 1469 
Q 531 1450 956 1450 
L 3713 1450 
Q 4138 1450 4556 1469 
z
" transform="scale(0.015625)"/>
      <path id="WenQuanYiZenHei-8d70" d="M 1344 2069 
Q 1588 2044 1831 2069 
Q 1813 1638 1813 1406 
Q 1813 1175 1813 1144 
L 1875 1163 
Q 2125 400 2913 94 
L 2913 2450 
L 1163 2450 
Q 813 2450 463 2431 
Q 488 2619 463 2813 
Q 813 2794 1163 2794 
L 2919 2794 
L 2919 3775 
L 1781 3775 
Q 1431 3775 1081 3763 
Q 1100 3950 1081 4138 
Q 1431 4119 1781 4119 
L 2919 4119 
L 2919 4356 
Q 2919 4806 2900 5256 
Q 3144 5231 3388 5256 
Q 3363 4806 3363 4356 
L 3363 4119 
L 4594 4119 
Q 4944 4119 5294 4138 
Q 5275 3950 5294 3763 
Q 4944 3775 4594 3775 
L 3363 3775 
L 3363 2794 
L 5063 2794 
Q 5413 2794 5763 2813 
Q 5744 2619 5763 2431 
Q 5413 2450 5063 2450 
L 3356 2450 
L 3356 1363 
L 4606 1363 
Q 4956 1363 5306 1381 
Q 5288 1188 5306 1000 
Q 4956 1019 4606 1019 
L 3356 1019 
L 3356 -31 
Q 3981 -156 4556 -150 
L 5988 -200 
Q 5813 -406 5813 -675 
L 4506 -619 
Q 3563 -606 2819 -356 
Q 2100 -94 1700 506 
Q 1388 -394 575 -800 
Q 475 -544 225 -431 
Q 713 -275 1034 156 
Q 1356 588 1362 1103 
Q 1369 1619 1344 2069 
z
" transform="scale(0.015625)"/>
      <path id="WenQuanYiZenHei-52bf" d="M 1406 2413 
L 1406 3019 
Q 869 2788 356 2525 
Q 325 2813 144 3038 
Q 750 3138 1406 3356 
L 1406 4113 
L 900 4113 
Q 563 4113 231 4094 
Q 250 4275 231 4456 
Q 563 4438 900 4438 
L 1406 4438 
Q 1406 4869 1381 5294 
Q 1625 5269 1869 5294 
Q 1844 4869 1844 4438 
L 2081 4438 
Q 2419 4438 2750 4456 
Q 2731 4275 2750 4094 
Q 2419 4113 2081 4113 
L 1844 4113 
L 1844 3519 
L 2563 3806 
L 2594 3513 
L 1844 3206 
L 1844 2256 
Q 1844 1681 1063 1600 
L 869 1588 
Q 925 1888 744 2131 
Q 900 2106 1103 2103 
Q 1306 2100 1356 2137 
Q 1406 2175 1406 2413 
z
M 3550 3744 
L 3550 4244 
L 2850 4231 
Q 2869 4413 2850 4594 
L 3550 4575 
Q 3544 4944 3525 5306 
Q 3769 5281 4013 5306 
Q 3994 4944 3988 4575 
L 5075 4575 
L 5025 3631 
Q 5025 3456 5056 3109 
Q 5088 2763 5238 2528 
Q 5388 2294 5638 2206 
Q 5644 2681 5613 3150 
Q 5856 3125 6094 3150 
Q 6056 2544 6075 1938 
Q 6056 1756 5894 1719 
Q 5863 1706 5831 1694 
Q 5306 1769 4956 2166 
Q 4606 2563 4619 3081 
L 4638 3631 
L 4638 4244 
L 3988 4244 
L 3988 3744 
Q 3988 3419 3863 3106 
L 4513 2531 
L 4188 2175 
L 3625 2675 
Q 3163 2050 2363 1800 
Q 2300 2069 2063 2213 
Q 2450 2269 2765 2466 
Q 3081 2663 3288 2956 
L 2763 3363 
L 3050 3750 
L 3500 3400 
Q 3550 3575 3550 3744 
z
M 719 -931 
Q 650 -631 413 -506 
Q 1269 -425 2000 56 
Q 2563 419 2694 856 
L 1238 856 
Q 956 856 675 844 
Q 688 1006 675 1163 
Q 956 1150 1238 1150 
L 2738 1150 
L 2738 1850 
L 3150 1850 
L 3150 1150 
L 5269 1150 
L 5269 -363 
Q 5269 -563 5075 -731 
Q 4800 -944 4194 -938 
Q 4244 -600 4063 -406 
Q 4244 -431 4519 -434 
Q 4794 -438 4825 -406 
Q 4856 -375 4856 -294 
L 4856 856 
L 3119 856 
Q 2988 213 2259 -287 
Q 1531 -788 719 -931 
z
" transform="scale(0.015625)"/>
      <path id="WenQuanYiZenHei-8fd1" d="M 1256 3125 
L 913 3125 
Q 563 3125 213 3113 
Q 238 3300 213 3488 
Q 563 3469 913 3469 
L 1700 3469 
L 1700 469 
Q 2056 231 2288 131 
Q 2775 -88 3663 -69 
L 6025 -88 
Q 5788 -256 5800 -550 
L 3663 -556 
Q 2769 -556 2169 -281 
Q 1769 -100 1456 213 
L 425 -506 
Q 325 -281 175 -88 
L 1256 475 
L 1256 3125 
z
M 1594 4338 
L 1213 4038 
L 488 4963 
L 875 5263 
L 1594 4338 
z
M 1888 581 
Q 2613 1056 2613 2281 
L 2613 4631 
L 3056 4631 
Q 3344 4663 4062 4878 
Q 4781 5094 5206 5300 
Q 5250 5056 5344 4831 
Q 4256 4600 3150 4263 
L 3056 4238 
L 3056 3269 
L 5138 3269 
Q 5488 3269 5838 3281 
Q 5813 3094 5838 2906 
Q 5488 2919 5138 2919 
L 4594 2919 
L 4594 1119 
Q 4594 669 4619 213 
Q 4375 238 4125 213 
Q 4150 669 4150 1119 
L 4150 2919 
L 3056 2919 
L 3056 2281 
Q 3056 1000 2306 306 
Q 2150 525 1888 581 
z
" transform="scale(0.015625)"/>
      <path id="WenQuanYiZenHei-37" d="M 3400 4056 
Q 1838 2175 1838 0 
L 1275 0 
Q 1269 1438 2056 2825 
Q 2381 3400 2825 3913 
L 444 3913 
L 500 4388 
L 3400 4388 
L 3400 4056 
z
" transform="scale(0.015625)"/>
      <path id="WenQuanYiZenHei-6b21" d="M 1325 -413 
Q 1944 -281 2459 94 
Q 2975 469 3290 1028 
Q 3606 1588 3600 2219 
Q 3600 2681 3575 3138 
Q 3825 3113 4075 3138 
L 4050 2131 
Q 4281 806 5056 75 
Q 5525 -331 6138 -563 
Q 5900 -694 5813 -950 
Q 5100 -669 4615 -94 
Q 4131 481 3869 1219 
Q 3613 538 3047 -6 
Q 2481 -550 1706 -813 
Q 1613 -519 1325 -413 
z
M 3150 3775 
L 5706 3775 
L 5756 3369 
Q 5663 3356 5619 3294 
L 5156 2438 
L 4756 2656 
L 5175 3413 
L 3044 3413 
Q 2731 2444 2225 1725 
Q 2019 1919 1738 1950 
Q 2531 3019 2719 3919 
Q 2838 4494 2863 5081 
Q 3138 5038 3413 5044 
Q 3313 4369 3150 3775 
z
M 250 -363 
Q 625 363 897 1069 
Q 1169 1775 1563 3006 
L 1831 2831 
Q 1350 1288 1125 506 
L 831 -556 
Q 569 -375 250 -363 
z
M 1181 3188 
Q 800 3775 338 4313 
L 713 4638 
Q 1194 4075 1600 3456 
L 1181 3188 
z
" transform="scale(0.015625)"/>
      <path id="WenQuanYiZenHei-8ddf" d="M 2981 5013 
L 5456 5013 
L 5450 2438 
L 4244 2444 
Q 4313 1800 4519 1300 
Q 5063 1663 5475 2169 
L 5825 1881 
Q 5369 1319 4763 919 
L 4519 1288 
Q 4994 138 6175 -306 
Q 5963 -425 5869 -656 
Q 5294 -419 4856 63 
Q 4025 956 3869 2444 
L 3394 2444 
L 3400 -88 
L 4263 450 
L 4388 188 
Q 4194 88 3812 -212 
Q 3431 -513 3131 -788 
L 2906 -438 
Q 2988 -206 2988 38 
L 2981 5013 
z
M 3394 2719 
L 5038 2719 
L 5038 3644 
L 3394 3644 
L 3394 2719 
z
M 5038 3900 
L 5038 4731 
L 3394 4731 
L 3394 3900 
L 5038 3900 
z
M 313 -725 
Q 294 -431 156 -238 
Q 344 -219 525 -194 
L 525 1425 
Q 525 1838 506 2256 
Q 731 2231 950 2256 
Q 931 1838 931 1425 
L 931 -125 
Q 1113 -88 1344 -31 
L 1344 3031 
L 450 3031 
Q 525 3950 450 4869 
L 2506 4869 
Q 2425 3956 2500 3031 
L 1750 3031 
L 1750 1875 
Q 2344 1875 2594 1888 
Q 2575 1738 2594 1588 
Q 2444 1594 1750 1600 
L 1750 81 
Q 2106 181 2556 319 
L 2563 75 
Q 1525 -269 1094 -428 
Q 663 -588 313 -725 
z
M 863 4594 
L 863 3306 
L 2088 3306 
L 2094 4594 
L 863 4594 
z
" transform="scale(0.015625)"/>
      <path id="WenQuanYiZenHei-8e2a" d="M 6219 -119 
L 5844 -356 
Q 5588 50 5313 444 
L 4744 1213 
L 5100 1488 
L 5675 700 
Q 5956 294 6219 -119 
z
M 3369 1438 
Q 3569 1338 3788 1288 
Q 3481 350 2575 -406 
Q 2469 -219 2269 -131 
Q 2675 181 2915 547 
Q 3156 913 3369 1438 
z
M 4119 -88 
L 4119 1950 
L 3363 1950 
Q 3088 1950 2819 1938 
Q 2838 2081 2819 2225 
Q 3088 2213 3363 2213 
L 5519 2213 
Q 5788 2213 6056 2225 
Q 6038 2081 6056 1938 
Q 5788 1950 5519 1950 
L 4525 1950 
L 4525 -206 
Q 4500 -556 4238 -675 
Q 4025 -788 3750 -794 
Q 3800 -506 3638 -263 
Q 3881 -350 4088 -294 
Q 4119 -263 4119 -88 
z
M 5469 3419 
Q 5456 3275 5469 3125 
Q 5200 3138 4931 3138 
L 3663 3138 
Q 3394 3138 3125 3125 
Q 3138 3275 3125 3419 
Q 3394 3406 3663 3406 
L 4931 3406 
Q 5200 3406 5469 3419 
z
M 3006 3419 
L 2600 3419 
L 2600 4594 
L 4250 4588 
L 3863 5075 
L 4206 5350 
L 4606 4856 
L 4269 4588 
L 6075 4588 
L 6075 3419 
L 5669 3419 
L 5669 4325 
L 3006 4325 
L 3006 3419 
z
M 294 -725 
Q 275 -431 144 -238 
Q 319 -219 488 -194 
L 488 1425 
Q 488 1838 469 2256 
Q 681 2231 888 2256 
Q 869 1838 869 1425 
L 869 -125 
Q 1038 -88 1250 -31 
L 1250 3031 
L 419 3031 
Q 488 3950 419 4869 
L 2338 4869 
Q 2263 3956 2325 3031 
L 1631 3031 
L 1631 1875 
Q 2181 1875 2419 1888 
Q 2400 1738 2419 1588 
Q 2281 1594 1631 1600 
L 1631 81 
Q 1963 181 2381 319 
L 2388 75 
Q 1419 -269 1019 -428 
Q 619 -588 294 -725 
z
M 800 4594 
L 800 3306 
L 1950 3306 
L 1950 4594 
L 800 4594 
z
" transform="scale(0.015625)"/>
     </defs>
     <use xlink:href="#WenQuanYiZenHei-9686"/>
     <use xlink:href="#WenQuanYiZenHei-57fa" x="100"/>
     <use xlink:href="#WenQuanYiZenHei-7eff" x="200"/>
     <use xlink:href="#WenQuanYiZenHei-80fd" x="300"/>
     <use xlink:href="#WenQuanYiZenHei-20" x="400"/>
     <use xlink:href="#WenQuanYiZenHei-7b79" x="429.980469"/>
     <use xlink:href="#WenQuanYiZenHei-7801" x="529.980469"/>
     <use xlink:href="#WenQuanYiZenHei-5206" x="629.980469"/>
     <use xlink:href="#WenQuanYiZenHei-5e03" x="729.980469"/>
     <use xlink:href="#WenQuanYiZenHei-4e0e" x="829.980469"/>
     <use xlink:href="#WenQuanYiZenHei-80a1" x="929.980469"/>
     <use xlink:href="#WenQuanYiZenHei-4ef7" x="1029.980469"/>
     <use xlink:href="#WenQuanYiZenHei-8d70" x="1129.980469"/>
     <use xlink:href="#WenQuanYiZenHei-52bf" x="1229.980469"/>
     <use xlink:href="#WenQuanYiZenHei-20" x="1329.980469"/>
     <use xlink:href="#WenQuanYiZenHei-28" x="1359.960938"/>
     <use xlink:href="#WenQuanYiZenHei-8fd1" x="1389.941406"/>
     <use xlink:href="#WenQuanYiZenHei-20" x="1489.941406"/>
     <use xlink:href="#WenQuanYiZenHei-37" x="1519.921875"/>
     <use xlink:href="#WenQuanYiZenHei-20" x="1579.882812"/>
     <use xlink:href="#WenQuanYiZenHei-6b21" x="1609.863281"/>
     <use xlink:href="#WenQuanYiZenHei-8ddf" x="1709.863281"/>
     <use xlink:href="#WenQuanYiZenHei-8e2a" x="1809.863281"/>
     <use xlink:href="#WenQuanYiZenHei-29" x="1909.863281"/>
    </g>
   </g>
  </g>
 </g>
 <defs>
  <clipPath id="pd9d9ed777c">
   <rect x="52.1625" y="33.903125" width="605.9" height="231.844"/>
  </clipPath>
 </defs>
</svg>
