<?xml version="1.0" encoding="utf-8" standalone="no"?>
<!DOCTYPE svg PUBLIC "-//W3C//DTD SVG 1.1//EN"
  "http://www.w3.org/Graphics/SVG/1.1/DTD/svg11.dtd">
<svg xmlns:xlink="http://www.w3.org/1999/xlink" width="712.78375pt" height="317.114062pt" viewBox="0 0 712.78375 317.114062" xmlns="http://www.w3.org/2000/svg" version="1.1">
 <metadata>
  <rdf:RDF xmlns:dc="http://purl.org/dc/elements/1.1/" xmlns:cc="http://creativecommons.org/ns#" xmlns:rdf="http://www.w3.org/1999/02/22-rdf-syntax-ns#">
   <cc:Work>
    <dc:type rdf:resource="http://purl.org/dc/dcmitype/StillImage"/>
    <dc:date>2026-06-25T17:30:58.400622</dc:date>
    <dc:format>image/svg+xml</dc:format>
    <dc:creator>
     <cc:Agent>
      <dc:title>Matplotlib v3.6.3, https://matplotlib.org/</dc:title>
     </cc:Agent>
    </dc:creator>
   </cc:Work>
  </rdf:RDF>
 </metadata>
 <defs>
  <style type="text/css">*{stroke-linejoin: round; stroke-linecap: butt}</style>
 </defs>
 <g id="figure_1">
  <g id="patch_1">
   <path d="M 0 317.114062 
L 712.78375 317.114062 
L 712.78375 0 
L 0 0 
L 0 317.114062 
z
" style="fill: none"/>
  </g>
  <g id="axes_1">
   <g id="patch_2">
    <path d="M 52.1625 274.982812 
L 705.58375 274.982812 
L 705.58375 34.080312 
L 52.1625 34.080312 
L 52.1625 274.982812 
z
" style="fill: none"/>
   </g>
   <g id="matplotlib.axis_1">
    <g id="xtick_1">
     <g id="line2d_1">
      <path d="M 81.863466 274.982812 
L 81.863466 34.080312 
" clip-path="url(#p7a83462cc6)" style="fill: none; stroke-dasharray: 2.96,1.28; stroke-dashoffset: 0; stroke: #2d2d2d; stroke-opacity: 0.5; stroke-width: 0.8"/>
     </g>
     <g id="line2d_2">
      <defs>
       <path id="m675f8be0f5" d="M 0 0 
L 0 3.5 
" style="stroke: #888888; stroke-width: 0.8"/>
      </defs>
      <g>
       <use xlink:href="#m675f8be0f5" x="81.863466" y="274.982812" style="fill: #888888; stroke: #888888; stroke-width: 0.8"/>
      </g>
     </g>
     <g id="text_1">
      <!-- 06-10 -->
      <g style="fill: #888888" transform="translate(68.370497 288.839063) scale(0.1 -0.1)">
       <defs>
        <path id="WenQuanYiZenHei-30" d="M 3581 2175 
Q 3581 1288 3169 638 
Q 2713 -63 1938 -63 
Q 1025 -63 563 831 
Q 256 1425 256 2188 
Q 256 3188 700 3819 
Q 1138 4456 1888 4456 
Q 2863 4456 3306 3500 
Q 3581 2925 3581 2175 
z
M 3019 2100 
Q 3019 3356 2500 3806 
L 2350 3919 
Q 2144 4031 1888 4031 
Q 1100 4031 888 2956 
Q 819 2625 819 2225 
Q 819 1013 1338 569 
Q 1588 356 1938 356 
Q 2675 356 2925 1294 
Q 3019 1663 3019 2100 
z
" transform="scale(0.015625)"/>
        <path id="WenQuanYiZenHei-36" d="M 3550 1431 
Q 3550 725 3006 288 
Q 2581 -63 1994 -63 
Q 1013 -63 563 825 
Q 288 1363 288 2081 
Q 288 3294 856 3938 
Q 1319 4456 2075 4456 
Q 2969 4456 3363 3756 
Q 3431 3631 3481 3481 
L 2988 3350 
Q 2750 3994 2075 4006 
Q 1056 4006 844 2669 
Q 794 2356 794 1981 
L 806 1981 
Q 1006 2506 1544 2744 
Q 1819 2869 2119 2869 
Q 2788 2869 3213 2375 
Q 3550 1975 3550 1431 
z
M 3038 1406 
Q 3038 1906 2656 2213 
Q 2381 2431 2038 2431 
Q 1525 2431 1181 2044 
Q 919 1744 919 1356 
Q 919 881 1344 581 
Q 1631 375 1981 375 
Q 2519 375 2838 781 
Q 3038 1050 3038 1406 
z
" transform="scale(0.015625)"/>
        <path id="WenQuanYiZenHei-2d" d="M 1363 1444 
L 0 1444 
L 0 1844 
L 1363 1844 
L 1363 1444 
z
" transform="scale(0.015625)"/>
        <path id="WenQuanYiZenHei-31" d="M 3556 0 
L 488 0 
L 488 406 
L 1800 406 
L 1800 3725 
Q 1231 3125 588 2788 
L 588 3338 
Q 1456 3781 1931 4388 
L 2331 4388 
L 2331 406 
L 3556 406 
L 3556 0 
z
" transform="scale(0.015625)"/>
       </defs>
       <use xlink:href="#WenQuanYiZenHei-30"/>
       <use xlink:href="#WenQuanYiZenHei-36" x="59.960938"/>
       <use xlink:href="#WenQuanYiZenHei-2d" x="119.921875"/>
       <use xlink:href="#WenQuanYiZenHei-31" x="149.902344"/>
       <use xlink:href="#WenQuanYiZenHei-30" x="209.863281"/>
      </g>
     </g>
    </g>
    <g id="xtick_2">
     <g id="line2d_3">
      <path d="M 141.265398 274.982812 
L 141.265398 34.080312 
" clip-path="url(#p7a83462cc6)" style="fill: none; stroke-dasharray: 2.96,1.28; stroke-dashoffset: 0; stroke: #2d2d2d; stroke-opacity: 0.5; stroke-width: 0.8"/>
     </g>
     <g id="line2d_4">
      <g>
       <use xlink:href="#m675f8be0f5" x="141.265398" y="274.982812" style="fill: #888888; stroke: #888888; stroke-width: 0.8"/>
      </g>
     </g>
     <g id="text_2">
      <!-- 06-11 -->
      <g style="fill: #888888" transform="translate(127.772429 288.839063) scale(0.1 -0.1)">
       <use xlink:href="#WenQuanYiZenHei-30"/>
       <use xlink:href="#WenQuanYiZenHei-36" x="59.960938"/>
       <use xlink:href="#WenQuanYiZenHei-2d" x="119.921875"/>
       <use xlink:href="#WenQuanYiZenHei-31" x="149.902344"/>
       <use xlink:href="#WenQuanYiZenHei-31" x="209.863281"/>
      </g>
     </g>
    </g>
    <g id="xtick_3">
     <g id="line2d_5">
      <path d="M 200.66733 274.982812 
L 200.66733 34.080312 
" clip-path="url(#p7a83462cc6)" style="fill: none; stroke-dasharray: 2.96,1.28; stroke-dashoffset: 0; stroke: #2d2d2d; stroke-opacity: 0.5; stroke-width: 0.8"/>
     </g>
     <g id="line2d_6">
      <g>
       <use xlink:href="#m675f8be0f5" x="200.66733" y="274.982812" style="fill: #888888; stroke: #888888; stroke-width: 0.8"/>
      </g>
     </g>
     <g id="text_3">
      <!-- 06-12 -->
      <g style="fill: #888888" transform="translate(187.174361 288.839063) scale(0.1 -0.1)">
       <defs>
        <path id="WenQuanYiZenHei-32" d="M 3488 0 
L 369 0 
L 369 456 
L 2150 1850 
Q 2931 2463 2931 3144 
Q 2931 3619 2488 3863 
Q 2231 4013 1931 4013 
Q 1425 4013 1113 3619 
Q 894 3356 881 3013 
L 369 3169 
Q 531 3981 1213 4300 
Q 1544 4456 1950 4456 
Q 2631 4456 3088 4044 
L 3225 3888 
L 3350 3706 
Q 3481 3444 3481 3144 
Q 3481 2313 2519 1569 
L 1069 456 
L 3488 456 
L 3488 0 
z
" transform="scale(0.015625)"/>
       </defs>
       <use xlink:href="#WenQuanYiZenHei-30"/>
       <use xlink:href="#WenQuanYiZenHei-36" x="59.960938"/>
       <use xlink:href="#WenQuanYiZenHei-2d" x="119.921875"/>
       <use xlink:href="#WenQuanYiZenHei-31" x="149.902344"/>
       <use xlink:href="#WenQuanYiZenHei-32" x="209.863281"/>
      </g>
     </g>
    </g>
    <g id="xtick_4">
     <g id="line2d_7">
      <path d="M 260.069261 274.982812 
L 260.069261 34.080312 
" clip-path="url(#p7a83462cc6)" style="fill: none; stroke-dasharray: 2.96,1.28; stroke-dashoffset: 0; stroke: #2d2d2d; stroke-opacity: 0.5; stroke-width: 0.8"/>
     </g>
     <g id="line2d_8">
      <g>
       <use xlink:href="#m675f8be0f5" x="260.069261" y="274.982812" style="fill: #888888; stroke: #888888; stroke-width: 0.8"/>
      </g>
     </g>
     <g id="text_4">
      <!-- 06-15 -->
      <g style="fill: #888888" transform="translate(246.576293 288.839063) scale(0.1 -0.1)">
       <defs>
        <path id="WenQuanYiZenHei-35" d="M 3531 1488 
Q 3531 688 2913 250 
Q 2456 -63 1844 -63 
Q 1175 -63 706 350 
Q 413 613 306 975 
L 781 1131 
Q 1000 538 1569 406 
Q 1706 369 1856 369 
Q 2550 369 2850 869 
Q 3000 1131 3000 1494 
Q 3000 2056 2581 2356 
Q 2319 2538 1969 2538 
Q 1400 2538 1031 2075 
Q 981 2013 938 1938 
L 500 2031 
L 644 4388 
L 3244 4388 
L 3200 3919 
L 1044 3919 
L 950 2500 
Q 1431 2975 2006 2975 
Q 2713 2975 3163 2475 
Q 3531 2063 3531 1488 
z
" transform="scale(0.015625)"/>
       </defs>
       <use xlink:href="#WenQuanYiZenHei-30"/>
       <use xlink:href="#WenQuanYiZenHei-36" x="59.960938"/>
       <use xlink:href="#WenQuanYiZenHei-2d" x="119.921875"/>
       <use xlink:href="#WenQuanYiZenHei-31" x="149.902344"/>
       <use xlink:href="#WenQuanYiZenHei-35" x="209.863281"/>
      </g>
     </g>
    </g>
    <g id="xtick_5">
     <g id="line2d_9">
      <path d="M 319.471193 274.982812 
L 319.471193 34.080312 
" clip-path="url(#p7a83462cc6)" style="fill: none; stroke-dasharray: 2.96,1.28; stroke-dashoffset: 0; stroke: #2d2d2d; stroke-opacity: 0.5; stroke-width: 0.8"/>
     </g>
     <g id="line2d_10">
      <g>
       <use xlink:href="#m675f8be0f5" x="319.471193" y="274.982812" style="fill: #888888; stroke: #888888; stroke-width: 0.8"/>
      </g>
     </g>
     <g id="text_5">
      <!-- 06-16 -->
      <g style="fill: #888888" transform="translate(305.978224 288.839063) scale(0.1 -0.1)">
       <use xlink:href="#WenQuanYiZenHei-30"/>
       <use xlink:href="#WenQuanYiZenHei-36" x="59.960938"/>
       <use xlink:href="#WenQuanYiZenHei-2d" x="119.921875"/>
       <use xlink:href="#WenQuanYiZenHei-31" x="149.902344"/>
       <use xlink:href="#WenQuanYiZenHei-36" x="209.863281"/>
      </g>
     </g>
    </g>
    <g id="xtick_6">
     <g id="line2d_11">
      <path d="M 378.873125 274.982812 
L 378.873125 34.080312 
" clip-path="url(#p7a83462cc6)" style="fill: none; stroke-dasharray: 2.96,1.28; stroke-dashoffset: 0; stroke: #2d2d2d; stroke-opacity: 0.5; stroke-width: 0.8"/>
     </g>
     <g id="line2d_12">
      <g>
       <use xlink:href="#m675f8be0f5" x="378.873125" y="274.982812" style="fill: #888888; stroke: #888888; stroke-width: 0.8"/>
      </g>
     </g>
     <g id="text_6">
      <!-- 06-17 -->
      <g style="fill: #888888" transform="translate(365.380156 288.839063) scale(0.1 -0.1)">
       <defs>
        <path id="WenQuanYiZenHei-37" d="M 3400 4056 
Q 1838 2175 1838 0 
L 1275 0 
Q 1269 1438 2056 2825 
Q 2381 3400 2825 3913 
L 444 3913 
L 500 4388 
L 3400 4388 
L 3400 4056 
z
" transform="scale(0.015625)"/>
       </defs>
       <use xlink:href="#WenQuanYiZenHei-30"/>
       <use xlink:href="#WenQuanYiZenHei-36" x="59.960938"/>
       <use xlink:href="#WenQuanYiZenHei-2d" x="119.921875"/>
       <use xlink:href="#WenQuanYiZenHei-31" x="149.902344"/>
       <use xlink:href="#WenQuanYiZenHei-37" x="209.863281"/>
      </g>
     </g>
    </g>
    <g id="xtick_7">
     <g id="line2d_13">
      <path d="M 438.275057 274.982812 
L 438.275057 34.080312 
" clip-path="url(#p7a83462cc6)" style="fill: none; stroke-dasharray: 2.96,1.28; stroke-dashoffset: 0; stroke: #2d2d2d; stroke-opacity: 0.5; stroke-width: 0.8"/>
     </g>
     <g id="line2d_14">
      <g>
       <use xlink:href="#m675f8be0f5" x="438.275057" y="274.982812" style="fill: #888888; stroke: #888888; stroke-width: 0.8"/>
      </g>
     </g>
     <g id="text_7">
      <!-- 06-18 -->
      <g style="fill: #888888" transform="translate(424.782088 288.839063) scale(0.1 -0.1)">
       <defs>
        <path id="WenQuanYiZenHei-38" d="M 3619 1175 
Q 3619 431 2850 100 
Q 2444 -63 1944 -63 
Q 1231 -63 725 269 
Q 225 594 225 1125 
Q 225 1881 1269 2281 
Q 719 2481 519 2938 
Q 444 3119 444 3319 
Q 444 4000 1144 4294 
Q 1519 4456 1963 4456 
Q 2669 4456 3094 4094 
Q 3425 3813 3425 3369 
Q 3425 2638 2575 2356 
Q 3231 2056 3450 1725 
Q 3619 1488 3619 1175 
z
M 2944 3344 
Q 2944 3906 2288 4019 
Q 2138 4044 1969 4044 
Q 1438 4044 1163 3775 
Q 1000 3613 1000 3375 
Q 1000 2925 1594 2663 
Q 1756 2588 1931 2550 
Q 2581 2725 2788 2956 
Q 2944 3125 2944 3344 
z
M 3075 1094 
Q 3075 1738 1875 2050 
Q 1094 1881 850 1463 
Q 763 1313 763 1131 
Q 763 569 1456 406 
Q 1681 344 1944 344 
Q 2519 344 2850 619 
Q 3075 813 3075 1094 
z
" transform="scale(0.015625)"/>
       </defs>
       <use xlink:href="#WenQuanYiZenHei-30"/>
       <use xlink:href="#WenQuanYiZenHei-36" x="59.960938"/>
       <use xlink:href="#WenQuanYiZenHei-2d" x="119.921875"/>
       <use xlink:href="#WenQuanYiZenHei-31" x="149.902344"/>
       <use xlink:href="#WenQuanYiZenHei-38" x="209.863281"/>
      </g>
     </g>
    </g>
    <g id="xtick_8">
     <g id="line2d_15">
      <path d="M 497.676989 274.982812 
L 497.676989 34.080312 
" clip-path="url(#p7a83462cc6)" style="fill: none; stroke-dasharray: 2.96,1.28; stroke-dashoffset: 0; stroke: #2d2d2d; stroke-opacity: 0.5; stroke-width: 0.8"/>
     </g>
     <g id="line2d_16">
      <g>
       <use xlink:href="#m675f8be0f5" x="497.676989" y="274.982812" style="fill: #888888; stroke: #888888; stroke-width: 0.8"/>
      </g>
     </g>
     <g id="text_8">
      <!-- 06-22 -->
      <g style="fill: #888888" transform="translate(484.18402 288.839063) scale(0.1 -0.1)">
       <use xlink:href="#WenQuanYiZenHei-30"/>
       <use xlink:href="#WenQuanYiZenHei-36" x="59.960938"/>
       <use xlink:href="#WenQuanYiZenHei-2d" x="119.921875"/>
       <use xlink:href="#WenQuanYiZenHei-32" x="149.902344"/>
       <use xlink:href="#WenQuanYiZenHei-32" x="209.863281"/>
      </g>
     </g>
    </g>
    <g id="xtick_9">
     <g id="line2d_17">
      <path d="M 557.07892 274.982812 
L 557.07892 34.080312 
" clip-path="url(#p7a83462cc6)" style="fill: none; stroke-dasharray: 2.96,1.28; stroke-dashoffset: 0; stroke: #2d2d2d; stroke-opacity: 0.5; stroke-width: 0.8"/>
     </g>
     <g id="line2d_18">
      <g>
       <use xlink:href="#m675f8be0f5" x="557.07892" y="274.982812" style="fill: #888888; stroke: #888888; stroke-width: 0.8"/>
      </g>
     </g>
     <g id="text_9">
      <!-- 06-23 -->
      <g style="fill: #888888" transform="translate(543.585952 288.839063) scale(0.1 -0.1)">
       <defs>
        <path id="WenQuanYiZenHei-33" d="M 3588 1231 
Q 3588 494 2875 144 
Q 2450 -63 1925 -63 
Q 1044 -63 556 488 
Q 356 706 256 1000 
L 769 1169 
Q 994 375 1913 375 
Q 2631 375 2900 788 
Q 3019 975 3019 1231 
Q 3019 1638 2638 1881 
Q 2325 2081 1613 2069 
L 1338 2069 
L 1338 2494 
Q 1969 2494 2094 2506 
Q 2325 2544 2463 2613 
Q 2763 2756 2844 3100 
Q 2863 3169 2863 3244 
Q 2863 3744 2381 3944 
L 2163 4006 
Q 2056 4025 1931 4025 
Q 1388 4025 1075 3631 
Q 969 3488 906 3313 
L 419 3456 
Q 675 4150 1400 4369 
Q 1669 4456 1975 4456 
Q 2694 4456 3106 4050 
Q 3419 3744 3419 3275 
Q 3419 2813 3025 2513 
Q 2825 2356 2575 2319 
L 2575 2306 
Q 3181 2213 3450 1769 
Q 3588 1525 3588 1231 
z
" transform="scale(0.015625)"/>
       </defs>
       <use xlink:href="#WenQuanYiZenHei-30"/>
       <use xlink:href="#WenQuanYiZenHei-36" x="59.960938"/>
       <use xlink:href="#WenQuanYiZenHei-2d" x="119.921875"/>
       <use xlink:href="#WenQuanYiZenHei-32" x="149.902344"/>
       <use xlink:href="#WenQuanYiZenHei-33" x="209.863281"/>
      </g>
     </g>
    </g>
    <g id="xtick_10">
     <g id="line2d_19">
      <path d="M 616.480852 274.982812 
L 616.480852 34.080312 
" clip-path="url(#p7a83462cc6)" style="fill: none; stroke-dasharray: 2.96,1.28; stroke-dashoffset: 0; stroke: #2d2d2d; stroke-opacity: 0.5; stroke-width: 0.8"/>
     </g>
     <g id="line2d_20">
      <g>
       <use xlink:href="#m675f8be0f5" x="616.480852" y="274.982812" style="fill: #888888; stroke: #888888; stroke-width: 0.8"/>
      </g>
     </g>
     <g id="text_10">
      <!-- 06-24 -->
      <g style="fill: #888888" transform="translate(602.987884 288.839063) scale(0.1 -0.1)">
       <defs>
        <path id="WenQuanYiZenHei-34" d="M 3631 1025 
L 2913 1025 
L 2913 0 
L 2381 0 
L 2381 1025 
L 219 1025 
L 219 1388 
L 2225 4388 
L 2913 4388 
L 2913 1444 
L 3631 1444 
L 3631 1025 
z
M 2381 1444 
L 2381 3963 
L 788 1444 
L 2381 1444 
z
" transform="scale(0.015625)"/>
       </defs>
       <use xlink:href="#WenQuanYiZenHei-30"/>
       <use xlink:href="#WenQuanYiZenHei-36" x="59.960938"/>
       <use xlink:href="#WenQuanYiZenHei-2d" x="119.921875"/>
       <use xlink:href="#WenQuanYiZenHei-32" x="149.902344"/>
       <use xlink:href="#WenQuanYiZenHei-34" x="209.863281"/>
      </g>
     </g>
    </g>
    <g id="xtick_11">
     <g id="line2d_21">
      <path d="M 675.882784 274.982812 
L 675.882784 34.080312 
" clip-path="url(#p7a83462cc6)" style="fill: none; stroke-dasharray: 2.96,1.28; stroke-dashoffset: 0; stroke: #2d2d2d; stroke-opacity: 0.5; stroke-width: 0.8"/>
     </g>
     <g id="line2d_22">
      <g>
       <use xlink:href="#m675f8be0f5" x="675.882784" y="274.982812" style="fill: #888888; stroke: #888888; stroke-width: 0.8"/>
      </g>
     </g>
     <g id="text_11">
      <!-- 06-25 -->
      <g style="fill: #888888" transform="translate(662.389815 288.839063) scale(0.1 -0.1)">
       <use xlink:href="#WenQuanYiZenHei-30"/>
       <use xlink:href="#WenQuanYiZenHei-36" x="59.960938"/>
       <use xlink:href="#WenQuanYiZenHei-2d" x="119.921875"/>
       <use xlink:href="#WenQuanYiZenHei-32" x="149.902344"/>
       <use xlink:href="#WenQuanYiZenHei-35" x="209.863281"/>
      </g>
     </g>
    </g>
    <g id="text_12">
     <!-- 日期 -->
     <g style="fill: #e0e0e0" transform="translate(368.873125 308.253125) scale(0.1 -0.1)">
      <defs>
       <path id="WenQuanYiZenHei-65e5" d="M 1494 -775 
Q 1244 -750 988 -775 
Q 1013 -313 1013 156 
L 1013 4875 
L 5269 4875 
L 5269 -763 
L 4813 -763 
L 4813 156 
L 1469 156 
Q 1469 -313 1494 -775 
z
M 4813 2700 
L 4813 4500 
L 1469 4500 
L 1469 2700 
L 4813 2700 
z
M 4813 531 
L 4813 2325 
L 1469 2325 
L 1469 531 
L 4813 531 
z
" transform="scale(0.015625)"/>
       <path id="WenQuanYiZenHei-671f" d="M 5475 94 
L 5475 1463 
L 4369 1463 
Q 4275 0 3300 -750 
Q 3156 -525 2900 -475 
Q 3963 150 3956 1781 
L 3956 4813 
L 5894 4813 
L 5894 -75 
Q 5894 -494 5650 -650 
Q 5394 -806 4813 -806 
Q 4881 -513 4675 -294 
Q 4863 -313 5103 -316 
Q 5344 -319 5409 -266 
Q 5475 -213 5475 94 
z
M 2944 -256 
Q 2619 281 2225 775 
L 2581 1063 
Q 3000 550 3338 -19 
L 2944 -256 
z
M 3656 1400 
Q 3638 1244 3656 1088 
Q 3363 1100 3069 1100 
L 1288 1100 
Q 1494 1000 1719 944 
Q 1431 69 581 -681 
Q 463 -494 256 -406 
Q 631 -106 859 247 
Q 1088 600 1288 1100 
L 700 1100 
Q 406 1100 113 1088 
Q 131 1244 113 1400 
Q 406 1388 700 1388 
L 981 1388 
L 981 4100 
L 263 4081 
Q 281 4244 263 4400 
L 981 4388 
Q 981 4800 963 5219 
Q 1194 5194 1425 5219 
Q 1406 4800 1400 4388 
L 2594 4388 
Q 2594 4800 2575 5219 
Q 2806 5194 3031 5219 
Q 3013 4800 3013 4388 
L 3613 4400 
Q 3594 4244 3613 4081 
L 3013 4100 
L 3013 1388 
L 3656 1400 
z
M 5475 3263 
L 5475 4525 
L 4375 4525 
L 4375 3263 
L 5475 3263 
z
M 5475 1725 
L 5475 3000 
L 4375 3000 
L 4375 1725 
L 5475 1725 
z
M 2594 3456 
L 2594 4100 
L 1400 4100 
L 1400 3463 
L 2594 3456 
z
M 2594 2444 
L 2594 3163 
L 1400 3156 
L 1400 2450 
L 2594 2444 
z
M 2594 1388 
L 2594 2156 
L 1400 2144 
L 1400 1388 
L 2594 1388 
z
" transform="scale(0.015625)"/>
      </defs>
      <use xlink:href="#WenQuanYiZenHei-65e5"/>
      <use xlink:href="#WenQuanYiZenHei-671f" x="100"/>
     </g>
    </g>
   </g>
   <g id="matplotlib.axis_2">
    <g id="ytick_1">
     <g id="line2d_23">
      <path d="M 52.1625 264.945208 
L 705.58375 264.945208 
" clip-path="url(#p7a83462cc6)" style="fill: none; stroke-dasharray: 2.96,1.28; stroke-dashoffset: 0; stroke: #2d2d2d; stroke-opacity: 0.5; stroke-width: 0.8"/>
     </g>
     <g id="line2d_24">
      <defs>
       <path id="m70bd6c17dd" d="M 0 0 
L -3.5 0 
" style="stroke: #888888; stroke-width: 0.8"/>
      </defs>
      <g>
       <use xlink:href="#m70bd6c17dd" x="52.1625" y="264.945208" style="fill: #888888; stroke: #888888; stroke-width: 0.8"/>
      </g>
     </g>
     <g id="text_13">
      <!-- 0 -->
      <g style="fill: #38bdf8" transform="translate(39.165625 268.373333) scale(0.1 -0.1)">
       <use xlink:href="#WenQuanYiZenHei-30"/>
      </g>
     </g>
    </g>
    <g id="ytick_2">
     <g id="line2d_25">
      <path d="M 52.1625 224.794792 
L 705.58375 224.794792 
" clip-path="url(#p7a83462cc6)" style="fill: none; stroke-dasharray: 2.96,1.28; stroke-dashoffset: 0; stroke: #2d2d2d; stroke-opacity: 0.5; stroke-width: 0.8"/>
     </g>
     <g id="line2d_26">
      <g>
       <use xlink:href="#m70bd6c17dd" x="52.1625" y="224.794792" style="fill: #888888; stroke: #888888; stroke-width: 0.8"/>
      </g>
     </g>
     <g id="text_14">
      <!-- 20 -->
      <g style="fill: #38bdf8" transform="translate(33.16875 228.222917) scale(0.1 -0.1)">
       <use xlink:href="#WenQuanYiZenHei-32"/>
       <use xlink:href="#WenQuanYiZenHei-30" x="59.960938"/>
      </g>
     </g>
    </g>
    <g id="ytick_3">
     <g id="line2d_27">
      <path d="M 52.1625 184.644375 
L 705.58375 184.644375 
" clip-path="url(#p7a83462cc6)" style="fill: none; stroke-dasharray: 2.96,1.28; stroke-dashoffset: 0; stroke: #2d2d2d; stroke-opacity: 0.5; stroke-width: 0.8"/>
     </g>
     <g id="line2d_28">
      <g>
       <use xlink:href="#m70bd6c17dd" x="52.1625" y="184.644375" style="fill: #888888; stroke: #888888; stroke-width: 0.8"/>
      </g>
     </g>
     <g id="text_15">
      <!-- 40 -->
      <g style="fill: #38bdf8" transform="translate(33.16875 188.0725) scale(0.1 -0.1)">
       <use xlink:href="#WenQuanYiZenHei-34"/>
       <use xlink:href="#WenQuanYiZenHei-30" x="59.960938"/>
      </g>
     </g>
    </g>
    <g id="ytick_4">
     <g id="line2d_29">
      <path d="M 52.1625 144.493958 
L 705.58375 144.493958 
" clip-path="url(#p7a83462cc6)" style="fill: none; stroke-dasharray: 2.96,1.28; stroke-dashoffset: 0; stroke: #2d2d2d; stroke-opacity: 0.5; stroke-width: 0.8"/>
     </g>
     <g id="line2d_30">
      <g>
       <use xlink:href="#m70bd6c17dd" x="52.1625" y="144.493958" style="fill: #888888; stroke: #888888; stroke-width: 0.8"/>
      </g>
     </g>
     <g id="text_16">
      <!-- 60 -->
      <g style="fill: #38bdf8" transform="translate(33.16875 147.922083) scale(0.1 -0.1)">
       <use xlink:href="#WenQuanYiZenHei-36"/>
       <use xlink:href="#WenQuanYiZenHei-30" x="59.960938"/>
      </g>
     </g>
    </g>
    <g id="ytick_5">
     <g id="line2d_31">
      <path d="M 52.1625 104.343542 
L 705.58375 104.343542 
" clip-path="url(#p7a83462cc6)" style="fill: none; stroke-dasharray: 2.96,1.28; stroke-dashoffset: 0; stroke: #2d2d2d; stroke-opacity: 0.5; stroke-width: 0.8"/>
     </g>
     <g id="line2d_32">
      <g>
       <use xlink:href="#m70bd6c17dd" x="52.1625" y="104.343542" style="fill: #888888; stroke: #888888; stroke-width: 0.8"/>
      </g>
     </g>
     <g id="text_17">
      <!-- 80 -->
      <g style="fill: #38bdf8" transform="translate(33.16875 107.771667) scale(0.1 -0.1)">
       <use xlink:href="#WenQuanYiZenHei-38"/>
       <use xlink:href="#WenQuanYiZenHei-30" x="59.960938"/>
      </g>
     </g>
    </g>
    <g id="ytick_6">
     <g id="line2d_33">
      <path d="M 52.1625 64.193125 
L 705.58375 64.193125 
" clip-path="url(#p7a83462cc6)" style="fill: none; stroke-dasharray: 2.96,1.28; stroke-dashoffset: 0; stroke: #2d2d2d; stroke-opacity: 0.5; stroke-width: 0.8"/>
     </g>
     <g id="line2d_34">
      <g>
       <use xlink:href="#m70bd6c17dd" x="52.1625" y="64.193125" style="fill: #888888; stroke: #888888; stroke-width: 0.8"/>
      </g>
     </g>
     <g id="text_18">
      <!-- 100 -->
      <g style="fill: #38bdf8" transform="translate(27.171875 67.62125) scale(0.1 -0.1)">
       <use xlink:href="#WenQuanYiZenHei-31"/>
       <use xlink:href="#WenQuanYiZenHei-30" x="59.960938"/>
       <use xlink:href="#WenQuanYiZenHei-30" x="119.921875"/>
      </g>
     </g>
    </g>
    <g id="text_19">
     <!-- 获利盘比例 (%) -->
     <g style="fill: #38bdf8" transform="translate(15.4625 187.525312) rotate(-90) scale(0.1 -0.1)">
      <defs>
       <path id="WenQuanYiZenHei-83b7" d="M 5531 2900 
L 5188 2581 
L 4544 3263 
L 4888 3588 
L 5531 2900 
z
M 2231 -488 
Q 1981 -775 1256 -756 
Q 1325 -456 1113 -238 
Q 1306 -256 1578 -259 
Q 1850 -263 1890 -225 
Q 1931 -188 1931 -31 
L 1931 1506 
Q 1463 819 563 100 
Q 456 300 250 400 
Q 888 869 1425 1606 
L 1813 2169 
L 1663 2331 
Q 1113 1956 406 1619 
Q 344 1838 163 1975 
Q 788 2256 1344 2669 
L 1169 2856 
L 731 3300 
Q 863 3406 975 3531 
Q 1175 3294 1394 3069 
L 1594 2856 
Q 1906 3106 2313 3481 
Q 2463 3294 2644 3144 
Q 2313 2813 1913 2513 
L 2363 2038 
L 2363 -150 
Q 2363 -306 2275 -438 
Q 2925 -188 3338 413 
Q 3788 1056 3756 1994 
L 3119 1994 
Q 2806 1994 2494 1975 
Q 2513 2144 2494 2313 
Q 2806 2300 3119 2300 
L 3756 2300 
L 3756 2450 
Q 3756 2881 3731 3319 
Q 3969 3294 4206 3319 
Q 4181 2881 4181 2450 
L 4181 2300 
L 5481 2300 
Q 5794 2300 6106 2313 
Q 6088 2144 6106 1975 
Q 5794 1994 5481 1994 
L 4544 1994 
Q 4638 1081 5022 531 
Q 5406 -19 6075 -319 
Q 5844 -431 5738 -663 
Q 5119 -363 4709 300 
Q 4300 963 4181 1756 
Q 4163 913 3728 222 
Q 3294 -469 2550 -819 
Q 2456 -588 2231 -488 
z
M 4419 3644 
Q 4169 3669 3919 3644 
Q 3938 3944 3938 4225 
L 2138 4225 
Q 2138 3938 2156 3644 
Q 1906 3669 1656 3644 
Q 1675 3944 1675 4225 
L 844 4225 
Q 481 4225 113 4206 
Q 138 4400 113 4588 
Q 481 4575 844 4575 
L 1681 4575 
Q 1675 4925 1656 5275 
Q 1906 5250 2156 5275 
Q 2138 4906 2131 4575 
L 3944 4575 
Q 3938 4925 3919 5275 
Q 4169 5250 4419 5275 
Q 4400 4906 4394 4575 
L 5406 4575 
Q 5769 4575 6138 4588 
Q 6113 4400 6138 4206 
Q 5769 4225 5406 4225 
L 4394 4225 
Q 4400 3938 4419 3644 
z
" transform="scale(0.015625)"/>
       <path id="WenQuanYiZenHei-5229" d="M 1038 2931 
Q 688 2931 338 2913 
Q 363 3106 338 3294 
Q 688 3275 1038 3275 
L 1731 3275 
L 1731 4281 
Q 1169 4119 500 3981 
Q 488 4213 344 4400 
Q 1263 4569 2219 4950 
L 3025 5288 
Q 3100 5050 3225 4838 
Q 2719 4600 2175 4419 
L 2175 3275 
L 2819 3275 
Q 3169 3275 3519 3294 
Q 3500 3106 3519 2913 
Q 3169 2931 2819 2931 
L 2175 2931 
L 2175 2856 
Q 2825 2200 3413 1475 
L 3031 1169 
Q 2619 1675 2175 2150 
L 2175 138 
Q 2175 -313 2194 -769 
Q 1950 -738 1706 -769 
Q 1731 -313 1731 138 
L 1731 2075 
Q 1206 919 431 163 
Q 269 388 0 469 
Q 888 1281 1250 2106 
Q 1394 2438 1550 2931 
L 1038 2931 
z
M 4756 -888 
Q 4806 -544 4606 -350 
Q 4806 -375 5059 -378 
Q 5313 -381 5388 -325 
Q 5463 -269 5463 38 
L 5463 4181 
Q 5463 4631 5444 5075 
Q 5688 5050 5931 5075 
Q 5913 4631 5913 4181 
L 5913 -106 
Q 5913 -656 5500 -800 
Q 5150 -913 4756 -888 
z
M 4613 756 
Q 4369 781 4119 756 
Q 4144 1200 4144 1650 
L 4144 3269 
Q 4144 3713 4119 4163 
Q 4369 4138 4613 4163 
Q 4588 3713 4588 3269 
L 4588 1650 
Q 4588 1200 4613 756 
z
" transform="scale(0.015625)"/>
       <path id="WenQuanYiZenHei-76d8" d="M 881 3063 
Q 575 3063 275 3050 
Q 294 3213 275 3375 
Q 575 3363 881 3363 
L 1594 3363 
L 1594 4663 
Q 1944 4663 2294 4663 
Q 2475 4806 2600 5163 
Q 2819 5075 3050 5038 
Q 3000 4838 2875 4663 
L 4719 4663 
L 4719 3363 
L 5294 3363 
Q 5594 3363 5900 3375 
Q 5881 3213 5900 3050 
Q 5594 3063 5294 3063 
L 4719 3063 
L 4719 1981 
Q 4719 1744 4550 1575 
Q 4306 1350 3663 1363 
Q 3731 1650 3531 1875 
Q 3706 1856 3956 1853 
Q 4206 1850 4253 1887 
Q 4300 1925 4300 2113 
L 4300 3063 
L 2894 3063 
L 3500 2344 
L 3144 2044 
L 2469 2850 
L 2719 3063 
L 2019 3063 
L 2019 2675 
Q 2025 2075 1581 1603 
Q 1138 1131 538 981 
Q 488 1244 263 1388 
Q 819 1450 1209 1828 
Q 1600 2206 1600 2669 
L 1594 3063 
L 881 3063 
z
M 2444 4369 
L 2019 4369 
L 2019 3363 
L 3131 3363 
L 2444 4131 
L 2706 4369 
L 2594 4369 
Q 2544 4325 2488 4288 
Q 2469 4325 2444 4369 
z
M 4300 3363 
L 4300 4369 
L 2856 4369 
L 3494 3656 
L 3163 3363 
L 4300 3363 
z
M 6138 -381 
Q 6119 -550 6138 -719 
Q 5813 -706 5494 -706 
L 925 -706 
Q 600 -706 275 -719 
Q 294 -550 275 -381 
L 1013 -400 
L 1013 1150 
L 5156 1150 
L 5156 -400 
L 5494 -400 
Q 5813 -400 6138 -381 
z
M 3850 -400 
L 4725 -400 
L 4725 844 
L 3850 844 
L 3850 -400 
z
M 3413 -400 
L 3413 844 
L 2650 844 
L 2650 -400 
L 3413 -400 
z
M 2213 -400 
L 2213 844 
L 1450 844 
Q 1450 406 1450 -400 
L 2213 -400 
z
" transform="scale(0.015625)"/>
       <path id="WenQuanYiZenHei-6bd4" d="M 3738 350 
Q 3738 225 3800 137 
Q 3863 50 3963 50 
L 5288 50 
Q 5406 56 5438 169 
Q 5475 275 5488 406 
L 5606 1244 
Q 5813 1106 6056 1106 
L 5863 -113 
Q 5838 -256 5750 -350 
Q 5706 -381 5644 -381 
L 3956 -381 
Q 3656 -381 3462 -181 
Q 3269 19 3269 350 
L 3269 4313 
Q 3269 4788 3250 5256 
Q 3500 5231 3756 5256 
Q 3738 4788 3738 4313 
L 3738 2625 
Q 4206 2869 4581 3187 
Q 4956 3506 5363 3963 
Q 5544 3781 5756 3638 
Q 5013 2713 3738 2113 
L 3738 350 
z
M 2875 3088 
Q 2850 2869 2875 2650 
Q 2475 2675 2075 2675 
L 1075 2675 
L 1075 6 
L 2756 1331 
L 2950 975 
Q 2763 850 2581 706 
L 794 -825 
L 519 -450 
Q 613 -200 613 63 
L 613 4188 
Q 613 4663 588 5138 
Q 844 5106 1100 5138 
Q 1075 4663 1075 4188 
L 1075 3069 
L 2075 3069 
Q 2475 3069 2875 3088 
z
" transform="scale(0.015625)"/>
       <path id="WenQuanYiZenHei-4f8b" d="M 5419 119 
L 5419 4100 
Q 5419 4544 5400 4988 
Q 5638 4963 5881 4988 
Q 5863 4544 5863 4100 
L 5863 -50 
Q 5863 -469 5619 -644 
Q 5369 -825 4763 -819 
Q 4831 -519 4625 -288 
Q 4813 -306 5047 -309 
Q 5281 -313 5350 -259 
Q 5419 -206 5419 119 
z
M 4919 688 
Q 4681 713 4438 688 
Q 4456 1131 4456 1581 
L 4456 3013 
Q 4456 3463 4438 3906 
Q 4681 3881 4919 3906 
Q 4900 3463 4900 3013 
L 4900 1581 
Q 4900 1131 4919 688 
z
M 1644 -369 
Q 2688 144 3188 1200 
Q 2863 1731 2444 2194 
Q 2206 1713 1919 1306 
Q 1719 1494 1450 1531 
Q 2188 2500 2425 3369 
Q 2531 3756 2625 4300 
Q 2344 4294 2069 4281 
Q 2088 4463 2069 4644 
Q 2406 4631 2744 4631 
L 3644 4631 
Q 3981 4631 4313 4644 
Q 4294 4463 4313 4281 
Q 3981 4300 3644 4300 
L 3106 4300 
Q 3013 3788 2875 3319 
L 3988 3319 
L 3888 2306 
Q 3819 1706 3725 1419 
Q 3281 -6 2088 -663 
Q 1894 -475 1644 -369 
z
M 3388 1775 
Q 3519 2256 3588 2988 
L 2769 2988 
Q 2713 2825 2650 2675 
Q 3063 2256 3388 1775 
z
M 1869 4925 
Q 1650 4075 1294 3338 
L 1294 31 
Q 1294 -413 1313 -850 
Q 1113 -825 913 -850 
Q 931 -413 931 31 
L 931 2681 
Q 663 2269 338 1931 
Q 213 2156 0 2256 
Q 294 2544 550 2875 
Q 975 3425 1156 3950 
Q 1325 4469 1444 5050 
Q 1644 4963 1869 4925 
z
" transform="scale(0.015625)"/>
       <path id="WenQuanYiZenHei-20" transform="scale(0.015625)"/>
       <path id="WenQuanYiZenHei-28" d="M 1606 -1094 
L 1275 -1094 
Q 475 -100 338 1231 
Q 319 1438 319 1656 
Q 319 3031 1156 4244 
Q 1213 4313 1269 4388 
L 1600 4388 
Q 806 3169 794 1681 
Q 794 188 1606 -1094 
z
" transform="scale(0.015625)"/>
       <path id="WenQuanYiZenHei-25" d="M 4313 1075 
Q 4313 469 3963 150 
L 3819 38 
Q 3713 -19 3594 -44 
L 3406 -63 
Q 2850 -63 2613 488 
Q 2494 756 2494 1075 
Q 2494 1719 2863 2038 
Q 3081 2219 3394 2219 
Q 3969 2219 4206 1650 
Q 4313 1394 4313 1075 
z
M 3394 1894 
Q 2888 1894 2888 1075 
Q 2888 388 3263 281 
Q 3325 263 3406 263 
Q 3825 263 3913 831 
Q 3925 938 3925 1044 
Q 3925 1894 3394 1894 
z
M 3800 4388 
L 1144 0 
L 681 0 
L 3338 4388 
L 3800 4388 
z
M 1981 3306 
Q 1981 2700 1631 2381 
Q 1406 2169 1075 2169 
Q 519 2169 281 2719 
Q 169 2988 169 3306 
Q 169 3956 531 4269 
Q 750 4456 1063 4456 
Q 1638 4456 1875 3888 
Q 1981 3631 1981 3306 
z
M 1063 4125 
Q 556 4125 556 3306 
Q 556 2625 938 2513 
Q 1000 2494 1075 2494 
Q 1500 2494 1581 3063 
Q 1594 3169 1594 3275 
Q 1594 4125 1063 4125 
z
" transform="scale(0.015625)"/>
       <path id="WenQuanYiZenHei-29" d="M 1600 1656 
Q 1600 306 869 -788 
Q 769 -950 644 -1094 
L 313 -1094 
Q 1125 188 1125 1681 
Q 1125 3169 338 4363 
Q 325 4375 319 4388 
L 650 4388 
Q 1525 3231 1594 1863 
Q 1600 1763 1600 1656 
z
" transform="scale(0.015625)"/>
      </defs>
      <use xlink:href="#WenQuanYiZenHei-83b7"/>
      <use xlink:href="#WenQuanYiZenHei-5229" x="100"/>
      <use xlink:href="#WenQuanYiZenHei-76d8" x="200"/>
      <use xlink:href="#WenQuanYiZenHei-6bd4" x="300"/>
      <use xlink:href="#WenQuanYiZenHei-4f8b" x="400"/>
      <use xlink:href="#WenQuanYiZenHei-20" x="500"/>
      <use xlink:href="#WenQuanYiZenHei-28" x="529.980469"/>
      <use xlink:href="#WenQuanYiZenHei-25" x="559.960938"/>
      <use xlink:href="#WenQuanYiZenHei-29" x="629.882812"/>
     </g>
    </g>
   </g>
   <g id="line2d_35">
    <path d="M 81.863466 263.22677 
L 141.265398 264.624005 
L 200.66733 263.905313 
L 260.069261 254.540228 
L 319.471193 241.232372 
L 378.873125 262.755003 
L 438.275057 261.897792 
L 497.676989 260.964295 
L 557.07892 260.448362 
L 616.480852 259.205706 
L 675.882784 263.756756 
" clip-path="url(#p7a83462cc6)" style="fill: none; stroke: #38bdf8; stroke-width: 2.5; stroke-linecap: square"/>
    <defs>
     <path id="m62351606b7" d="M 0 3 
C 0.795609 3 1.55874 2.683901 2.12132 2.12132 
C 2.683901 1.55874 3 0.795609 3 0 
C 3 -0.795609 2.683901 -1.55874 2.12132 -2.12132 
C 1.55874 -2.683901 0.795609 -3 0 -3 
C -0.795609 -3 -1.55874 -2.683901 -2.12132 -2.12132 
C -2.683901 -1.55874 -3 -0.795609 -3 0 
C -3 0.795609 -2.683901 1.55874 -2.12132 2.12132 
C -1.55874 2.683901 -0.795609 3 0 3 
z
" style="stroke: #38bdf8"/>
    </defs>
    <g clip-path="url(#p7a83462cc6)">
     <use xlink:href="#m62351606b7" x="81.863466" y="263.22677" style="fill: #38bdf8; stroke: #38bdf8"/>
     <use xlink:href="#m62351606b7" x="141.265398" y="264.624005" style="fill: #38bdf8; stroke: #38bdf8"/>
     <use xlink:href="#m62351606b7" x="200.66733" y="263.905313" style="fill: #38bdf8; stroke: #38bdf8"/>
     <use xlink:href="#m62351606b7" x="260.069261" y="254.540228" style="fill: #38bdf8; stroke: #38bdf8"/>
     <use xlink:href="#m62351606b7" x="319.471193" y="241.232372" style="fill: #38bdf8; stroke: #38bdf8"/>
     <use xlink:href="#m62351606b7" x="378.873125" y="262.755003" style="fill: #38bdf8; stroke: #38bdf8"/>
     <use xlink:href="#m62351606b7" x="438.275057" y="261.897792" style="fill: #38bdf8; stroke: #38bdf8"/>
     <use xlink:href="#m62351606b7" x="497.676989" y="260.964295" style="fill: #38bdf8; stroke: #38bdf8"/>
     <use xlink:href="#m62351606b7" x="557.07892" y="260.448362" style="fill: #38bdf8; stroke: #38bdf8"/>
     <use xlink:href="#m62351606b7" x="616.480852" y="259.205706" style="fill: #38bdf8; stroke: #38bdf8"/>
     <use xlink:href="#m62351606b7" x="675.882784" y="263.756756" style="fill: #38bdf8; stroke: #38bdf8"/>
    </g>
   </g>
   <g id="patch_3">
    <path d="M 52.1625 274.982812 
L 52.1625 34.080312 
" style="fill: none; stroke: #2d2d2d; stroke-width: 0.8; stroke-linejoin: miter; stroke-linecap: square"/>
   </g>
   <g id="patch_4">
    <path d="M 705.58375 274.982812 
L 705.58375 34.080312 
" style="fill: none; stroke: #2d2d2d; stroke-width: 0.8; stroke-linejoin: miter; stroke-linecap: square"/>
   </g>
   <g id="patch_5">
    <path d="M 52.1625 274.982812 
L 705.58375 274.982812 
" style="fill: none; stroke: #2d2d2d; stroke-width: 0.8; stroke-linejoin: miter; stroke-linecap: square"/>
   </g>
   <g id="patch_6">
    <path d="M 52.1625 34.080312 
L 705.58375 34.080312 
" style="fill: none; stroke: #2d2d2d; stroke-width: 0.8; stroke-linejoin: miter; stroke-linecap: square"/>
   </g>
   <g id="text_20">
    <!-- 0.9% -->
    <g style="fill: #ffffff" transform="translate(70.871278 253.565833) scale(0.1 -0.1)">
     <defs>
      <path id="WenQuanYiZenHei-2e" d="M 1344 0 
L 631 0 
L 631 725 
L 1344 725 
L 1344 0 
z
" transform="scale(0.015625)"/>
      <path id="WenQuanYiZenHei-39" d="M 3544 2300 
Q 3544 1163 3019 513 
Q 2563 -63 1775 -63 
Q 956 -63 563 488 
Q 463 631 394 813 
L 838 975 
Q 1025 494 1550 388 
Q 1656 369 1775 369 
Q 2594 369 2900 1325 
Q 3044 1769 3038 2313 
L 3025 2313 
Q 2675 1638 1944 1544 
Q 1844 1531 1744 1531 
Q 1050 1531 625 2031 
Q 294 2419 294 2963 
Q 294 3656 813 4094 
Q 1238 4456 1819 4456 
Q 2988 4456 3381 3363 
Q 3544 2900 3544 2300 
z
M 2925 2994 
Q 2925 3563 2469 3844 
Q 2206 4006 1863 4006 
Q 1275 4006 988 3563 
Q 844 3344 825 3056 
Q 819 3006 819 2956 
Q 819 2413 1269 2131 
Q 1538 1963 1875 1963 
Q 2363 1963 2681 2350 
Q 2925 2638 2925 2994 
z
" transform="scale(0.015625)"/>
     </defs>
     <use xlink:href="#WenQuanYiZenHei-30"/>
     <use xlink:href="#WenQuanYiZenHei-2e" x="59.960938"/>
     <use xlink:href="#WenQuanYiZenHei-39" x="89.941406"/>
     <use xlink:href="#WenQuanYiZenHei-25" x="149.902344"/>
    </g>
   </g>
   <g id="text_21">
    <!-- 0.2% -->
    <g style="fill: #ffffff" transform="translate(130.27321 254.963067) scale(0.1 -0.1)">
     <use xlink:href="#WenQuanYiZenHei-30"/>
     <use xlink:href="#WenQuanYiZenHei-2e" x="59.960938"/>
     <use xlink:href="#WenQuanYiZenHei-32" x="89.941406"/>
     <use xlink:href="#WenQuanYiZenHei-25" x="149.902344"/>
    </g>
   </g>
   <g id="text_22">
    <!-- 0.5% -->
    <g style="fill: #ffffff" transform="translate(189.675142 254.244375) scale(0.1 -0.1)">
     <use xlink:href="#WenQuanYiZenHei-30"/>
     <use xlink:href="#WenQuanYiZenHei-2e" x="59.960938"/>
     <use xlink:href="#WenQuanYiZenHei-35" x="89.941406"/>
     <use xlink:href="#WenQuanYiZenHei-25" x="149.902344"/>
    </g>
   </g>
   <g id="text_23">
    <!-- 5.2% -->
    <g style="fill: #ffffff" transform="translate(249.077074 244.87929) scale(0.1 -0.1)">
     <use xlink:href="#WenQuanYiZenHei-35"/>
     <use xlink:href="#WenQuanYiZenHei-2e" x="59.960938"/>
     <use xlink:href="#WenQuanYiZenHei-32" x="89.941406"/>
     <use xlink:href="#WenQuanYiZenHei-25" x="149.902344"/>
    </g>
   </g>
   <g id="text_24">
    <!-- 11.8% -->
    <g style="fill: #ffffff" transform="translate(305.480568 231.571435) scale(0.1 -0.1)">
     <use xlink:href="#WenQuanYiZenHei-31"/>
     <use xlink:href="#WenQuanYiZenHei-31" x="59.960938"/>
     <use xlink:href="#WenQuanYiZenHei-2e" x="119.921875"/>
     <use xlink:href="#WenQuanYiZenHei-38" x="149.902344"/>
     <use xlink:href="#WenQuanYiZenHei-25" x="209.863281"/>
    </g>
   </g>
   <g id="text_25">
    <!-- 1.1% -->
    <g style="fill: #ffffff" transform="translate(367.880938 253.094066) scale(0.1 -0.1)">
     <use xlink:href="#WenQuanYiZenHei-31"/>
     <use xlink:href="#WenQuanYiZenHei-2e" x="59.960938"/>
     <use xlink:href="#WenQuanYiZenHei-31" x="89.941406"/>
     <use xlink:href="#WenQuanYiZenHei-25" x="149.902344"/>
    </g>
   </g>
   <g id="text_26">
    <!-- 1.5% -->
    <g style="fill: #ffffff" transform="translate(427.282869 252.236854) scale(0.1 -0.1)">
     <use xlink:href="#WenQuanYiZenHei-31"/>
     <use xlink:href="#WenQuanYiZenHei-2e" x="59.960938"/>
     <use xlink:href="#WenQuanYiZenHei-35" x="89.941406"/>
     <use xlink:href="#WenQuanYiZenHei-25" x="149.902344"/>
    </g>
   </g>
   <g id="text_27">
    <!-- 2.0% -->
    <g style="fill: #ffffff" transform="translate(486.684801 251.303357) scale(0.1 -0.1)">
     <use xlink:href="#WenQuanYiZenHei-32"/>
     <use xlink:href="#WenQuanYiZenHei-2e" x="59.960938"/>
     <use xlink:href="#WenQuanYiZenHei-30" x="89.941406"/>
     <use xlink:href="#WenQuanYiZenHei-25" x="149.902344"/>
    </g>
   </g>
   <g id="text_28">
    <!-- 2.2% -->
    <g style="fill: #ffffff" transform="translate(546.086733 250.787424) scale(0.1 -0.1)">
     <use xlink:href="#WenQuanYiZenHei-32"/>
     <use xlink:href="#WenQuanYiZenHei-2e" x="59.960938"/>
     <use xlink:href="#WenQuanYiZenHei-32" x="89.941406"/>
     <use xlink:href="#WenQuanYiZenHei-25" x="149.902344"/>
    </g>
   </g>
   <g id="text_29">
    <!-- 2.9% -->
    <g style="fill: #ffffff" transform="translate(605.488665 249.544769) scale(0.1 -0.1)">
     <use xlink:href="#WenQuanYiZenHei-32"/>
     <use xlink:href="#WenQuanYiZenHei-2e" x="59.960938"/>
     <use xlink:href="#WenQuanYiZenHei-39" x="89.941406"/>
     <use xlink:href="#WenQuanYiZenHei-25" x="149.902344"/>
    </g>
   </g>
   <g id="text_30">
    <!-- 0.6% -->
    <g style="fill: #ffffff" transform="translate(664.890597 254.095818) scale(0.1 -0.1)">
     <use xlink:href="#WenQuanYiZenHei-30"/>
     <use xlink:href="#WenQuanYiZenHei-2e" x="59.960938"/>
     <use xlink:href="#WenQuanYiZenHei-36" x="89.941406"/>
     <use xlink:href="#WenQuanYiZenHei-25" x="149.902344"/>
    </g>
   </g>
   <g id="text_31">
    <!-- 山东威达 筹码分布历史走势 (近 11 个交易日收盘) -->
    <g style="fill: #e0e0e0" transform="translate(224.884062 19.080312) scale(0.14 -0.14)">
     <defs>
      <path id="WenQuanYiZenHei-5c71" d="M 5675 -769 
Q 5419 -738 5156 -769 
Q 5169 -538 5175 -306 
L 531 -306 
L 531 2806 
Q 531 3288 506 3769 
Q 769 3744 1025 3769 
Q 1000 3288 1000 2806 
L 1000 113 
L 2856 113 
L 2856 4300 
Q 2856 4781 2831 5263 
Q 3094 5231 3350 5263 
Q 3331 4781 3331 4300 
L 3331 113 
L 5181 113 
L 5181 2806 
Q 5181 3288 5156 3769 
Q 5419 3744 5675 3769 
Q 5656 3288 5656 2806 
L 5656 194 
Q 5656 -288 5675 -769 
z
" transform="scale(0.015625)"/>
      <path id="WenQuanYiZenHei-4e1c" d="M 6131 -19 
L 5750 -350 
L 4888 625 
L 3988 1563 
L 4344 1919 
L 5256 969 
L 6131 -19 
z
M 2144 1825 
Q 2344 1669 2569 1556 
Q 1850 350 438 -563 
Q 338 -338 131 -219 
Q 738 156 1194 622 
Q 1650 1088 2144 1825 
z
M 3244 2050 
L 1150 2050 
L 2163 3881 
L 1219 3881 
Q 838 3881 456 3863 
Q 481 4069 456 4275 
Q 838 4256 1219 4256 
L 2369 4256 
L 2538 4556 
Q 2763 4963 2969 5381 
Q 3175 5238 3406 5138 
Q 3163 4744 2938 4331 
L 2894 4256 
L 5375 4256 
Q 5756 4256 6138 4275 
Q 6113 4069 6138 3863 
Q 5756 3881 5375 3881 
L 2688 3881 
L 1881 2425 
L 3244 2425 
Q 3244 2881 3225 3338 
Q 3475 3313 3725 3338 
Q 3706 2881 3706 2425 
L 5650 2425 
L 5650 2050 
L 3706 2050 
L 3706 -119 
Q 3706 -506 3419 -663 
Q 3113 -831 2575 -825 
Q 2644 -513 2431 -269 
Q 2619 -294 2875 -297 
Q 3131 -300 3188 -250 
Q 3244 -194 3244 63 
L 3244 2050 
z
" transform="scale(0.015625)"/>
      <path id="WenQuanYiZenHei-5a01" d="M 5713 4550 
L 5369 4219 
L 4650 4963 
L 4994 5294 
L 5713 4550 
z
M 1094 4206 
L 4094 4206 
L 4075 5263 
Q 4313 5238 4550 5263 
L 4531 4206 
L 5488 4206 
Q 5813 4206 6138 4225 
Q 6119 4050 6138 3875 
Q 5813 3888 5488 3888 
L 4531 3888 
Q 4531 3575 4531 3256 
Q 4544 2375 4763 1606 
Q 5181 2350 5256 3206 
Q 5513 3144 5775 3138 
Q 5563 2013 4950 1081 
Q 5213 469 5644 -13 
Q 5644 425 5619 856 
Q 5838 713 6094 719 
Q 6150 94 6075 -531 
Q 6075 -613 6019 -681 
Q 5875 -819 5700 -706 
Q 5050 -113 4656 681 
Q 3938 -213 2950 -669 
Q 2869 -413 2656 -250 
Q 3019 -94 3350 119 
Q 3163 331 2931 506 
Q 2356 -200 1544 -513 
Q 1481 -250 1275 -69 
Q 2025 169 2556 750 
Q 2163 975 1719 1075 
Q 2025 1544 2181 2088 
L 1538 2088 
L 1538 1700 
Q 1538 250 594 -469 
Q 456 -244 194 -175 
Q 1106 331 1100 1700 
L 1094 4206 
z
M 3606 2425 
L 3594 2231 
L 3725 2213 
Q 3581 1481 3194 869 
Q 3475 700 3725 488 
Q 3544 338 3394 150 
Q 4019 563 4456 1144 
Q 4263 1675 4178 2237 
Q 4094 2800 4094 3888 
L 1531 3888 
L 1538 2406 
L 2263 2406 
Q 2319 2713 2331 3019 
Q 2594 2963 2856 2969 
Q 2813 2688 2744 2406 
L 3606 2425 
z
M 3800 3363 
Q 3781 3188 3800 3013 
Q 3475 3031 3150 3031 
L 2344 3031 
Q 2025 3031 1700 3013 
Q 1719 3188 1700 3363 
Q 2025 3350 2344 3350 
L 3150 3350 
Q 3475 3350 3800 3363 
z
M 3219 2088 
L 2650 2088 
Q 2519 1681 2325 1306 
Q 2575 1206 2813 1088 
Q 3119 1544 3219 2088 
z
" transform="scale(0.015625)"/>
      <path id="WenQuanYiZenHei-8fbe" d="M 3619 -644 
Q 2156 -663 1381 94 
L 625 -581 
Q 500 -369 331 -181 
L 1250 400 
L 1250 2388 
L 844 2388 
Q 475 2388 113 2369 
Q 131 2563 113 2763 
Q 475 2744 844 2744 
L 1706 2744 
L 1706 306 
Q 2188 19 2525 -62 
Q 2863 -144 3619 -150 
L 6025 -169 
Q 5781 -344 5800 -644 
L 3619 -644 
z
M 1619 3856 
Q 1231 4363 775 4800 
L 1119 5156 
Q 1600 4694 2013 4163 
L 1619 3856 
z
M 3631 2831 
L 3631 3244 
L 2731 3244 
Q 2369 3244 2000 3225 
Q 2025 3419 2000 3619 
Q 2369 3600 2731 3600 
L 3631 3600 
L 3631 4344 
Q 3631 4806 3606 5263 
Q 3856 5238 4106 5263 
Q 4081 4806 4081 4344 
L 4081 3600 
L 5275 3600 
Q 5638 3600 6000 3619 
Q 5981 3419 6000 3225 
Q 5638 3244 5275 3244 
L 4081 3244 
L 4081 2694 
L 4138 2756 
L 5038 1806 
L 5906 819 
L 5525 500 
L 4669 1469 
L 4006 2175 
Q 3844 1494 3378 972 
Q 2913 450 2269 206 
Q 2175 481 1906 600 
Q 2681 788 3156 1416 
Q 3631 2044 3631 2831 
z
" transform="scale(0.015625)"/>
      <path id="WenQuanYiZenHei-7b79" d="M 2163 731 
Q 2181 888 2163 1044 
Q 2450 1031 2731 1031 
L 4325 1031 
Q 4319 1331 4306 1631 
Q 4531 1606 4756 1631 
Q 4744 1331 4738 1031 
L 5444 1031 
Q 5731 1031 6013 1044 
Q 6000 888 6013 731 
Q 5731 750 5444 750 
L 4738 750 
L 4738 -256 
Q 4738 -419 4650 -537 
Q 4563 -656 4419 -719 
Q 4163 -831 3819 -831 
Q 3875 -550 3700 -325 
Q 3850 -344 4040 -350 
Q 4231 -356 4278 -331 
Q 4325 -306 4325 -156 
L 4325 750 
L 2919 750 
L 3263 69 
L 2856 -138 
L 2444 681 
L 2569 744 
Q 2363 744 2163 731 
z
M 5169 3238 
Q 5450 3238 5731 3250 
Q 5719 3094 5731 2944 
Q 5450 2956 5169 2956 
L 3194 2956 
Q 3106 2719 3006 2494 
L 4863 2494 
Q 5119 2494 5381 2506 
Q 5363 2363 5381 2225 
Q 5119 2238 4863 2238 
L 2888 2238 
Q 2800 2063 2706 1894 
L 5600 1894 
Q 5856 1894 6119 1906 
Q 6100 1763 6119 1625 
Q 5856 1638 5600 1638 
L 2550 1638 
Q 1713 294 425 -419 
Q 331 -181 113 -44 
Q 681 263 1203 694 
Q 1725 1125 2075 1638 
L 1088 1638 
Q 831 1638 569 1625 
Q 588 1763 569 1906 
Q 831 1894 1088 1894 
L 2238 1894 
Q 2331 2056 2406 2238 
L 1619 2238 
Q 1363 2238 1100 2225 
Q 1119 2363 1100 2506 
Q 1363 2494 1619 2494 
L 2506 2494 
Q 2594 2713 2675 2956 
L 1375 2956 
Q 1094 2956 806 2944 
Q 825 3094 806 3250 
Q 1094 3238 1375 3238 
L 2769 3238 
Q 2850 3488 2888 3656 
Q 3125 3581 3375 3550 
Q 3338 3394 3288 3238 
L 5169 3238 
z
M 3975 5188 
Q 4181 5125 4425 5100 
Q 4350 4850 4225 4619 
L 5538 4619 
Q 5831 4619 6125 4631 
Q 6106 4506 6125 4381 
Q 5831 4394 5538 4394 
L 4675 4394 
L 5038 3756 
L 4613 3613 
L 4231 4294 
L 4531 4394 
L 4094 4394 
Q 3763 3906 3306 3506 
Q 3175 3638 2956 3688 
Q 3675 4281 3975 5188 
z
M 1425 5206 
Q 1619 5125 1850 5075 
Q 1731 4831 1581 4594 
L 2869 4594 
Q 3163 4594 3450 4600 
Q 3438 4481 3450 4356 
Q 3163 4369 2869 4369 
L 2056 4369 
L 2363 3625 
L 1919 3513 
L 1581 4344 
L 1675 4369 
L 1431 4369 
Q 1025 3813 544 3306 
Q 400 3425 169 3463 
Q 719 4000 1138 4700 
L 1425 5206 
z
" transform="scale(0.015625)"/>
      <path id="WenQuanYiZenHei-7801" d="M 5431 1213 
Q 5413 1031 5431 850 
Q 5094 863 4756 863 
L 3188 863 
Q 2856 863 2519 850 
Q 2538 1031 2519 1213 
Q 2856 1194 3188 1194 
L 4756 1194 
Q 5094 1194 5431 1213 
z
M 5631 -63 
L 5631 2025 
L 3144 2025 
L 3306 3488 
Q 3356 3931 3381 4375 
Q 3619 4325 3863 4325 
Q 3794 3881 3744 3438 
L 3625 2356 
L 4744 2356 
L 5044 4656 
L 3581 4656 
Q 3244 4656 2906 4638 
Q 2925 4819 2906 5000 
Q 3244 4981 3581 4981 
L 5525 4981 
L 5188 2356 
L 6075 2356 
L 6075 -188 
Q 6075 -431 5888 -600 
Q 5631 -831 4938 -819 
Q 5006 -513 4788 -288 
Q 4988 -306 5263 -309 
Q 5538 -313 5584 -275 
Q 5631 -238 5631 -63 
z
M 694 3006 
L 694 3069 
L 719 3069 
Q 913 3606 1031 4400 
L 300 4381 
Q 319 4563 300 4744 
Q 638 4731 975 4731 
L 1925 4731 
Q 2263 4731 2600 4744 
Q 2581 4563 2600 4381 
Q 2263 4400 1925 4400 
L 1494 4400 
Q 1463 3750 1206 3063 
L 2406 3063 
L 2406 6 
L 1963 6 
L 1963 575 
L 1138 575 
L 1138 6 
L 694 6 
L 694 2019 
Q 600 1856 494 1700 
Q 325 1863 94 1894 
Q 475 2413 694 3006 
z
M 1963 2738 
L 1138 2738 
L 1138 906 
L 1963 906 
L 1963 2738 
z
" transform="scale(0.015625)"/>
      <path id="WenQuanYiZenHei-5206" d="M 2088 2169 
Q 1688 2169 1288 2150 
Q 1306 2363 1288 2581 
Q 1688 2563 2088 2563 
L 4819 2563 
L 4819 -169 
Q 4819 -425 4619 -600 
Q 4350 -844 3613 -838 
Q 3688 -513 3456 -269 
Q 3669 -294 3956 -297 
Q 4244 -300 4297 -259 
Q 4350 -219 4350 -31 
L 4350 2169 
L 2931 2169 
Q 2875 1131 2315 309 
Q 1756 -513 881 -813 
Q 681 -519 338 -406 
Q 706 -375 1078 -165 
Q 1450 44 1753 375 
Q 2056 706 2247 1181 
Q 2438 1656 2431 2169 
L 2088 2169 
z
M 6150 2500 
Q 5900 2381 5788 2131 
Q 4863 2606 4306 3450 
Q 3819 4175 3550 5050 
L 3956 5163 
Q 4356 3781 5294 3031 
Q 5694 2719 6150 2500 
z
M 2106 5050 
Q 2369 4944 2650 4900 
Q 2350 4044 1863 3313 
Q 1306 2469 456 1913 
Q 331 2175 75 2313 
Q 831 2769 1338 3381 
Q 1550 3638 1669 3881 
Q 1931 4438 2106 5050 
z
" transform="scale(0.015625)"/>
      <path id="WenQuanYiZenHei-5e03" d="M 3850 -769 
Q 3600 -744 3344 -769 
Q 3369 -306 3369 163 
L 3369 2319 
L 2094 2319 
L 2094 813 
Q 2094 350 2119 -113 
Q 1863 -88 1613 -113 
Q 1638 350 1638 813 
L 1638 1869 
Q 1094 1206 475 706 
Q 325 950 63 1063 
Q 1000 1800 1631 2625 
L 1638 2694 
L 1688 2694 
Q 2075 3206 2313 3775 
L 1169 3775 
Q 788 3775 406 3756 
Q 431 3963 406 4169 
Q 788 4150 1169 4150 
L 2475 4150 
Q 2719 4756 2838 5150 
Q 3094 5044 3369 4988 
Q 3213 4563 3025 4150 
L 5375 4150 
Q 5756 4150 6138 4169 
Q 6113 3963 6138 3756 
Q 5756 3775 5375 3775 
L 2850 3775 
Q 2569 3206 2238 2694 
L 3369 2694 
Q 3363 3038 3344 3381 
Q 3600 3356 3850 3381 
Q 3831 3038 3831 2694 
L 5544 2694 
L 5544 463 
Q 5544 281 5444 150 
Q 5344 19 5181 -50 
Q 4881 -175 4481 -175 
Q 4544 138 4344 388 
Q 4519 363 4766 356 
Q 5013 350 5050 387 
Q 5088 425 5088 569 
L 5088 2319 
L 3825 2319 
L 3825 163 
Q 3825 -306 3850 -769 
z
" transform="scale(0.015625)"/>
      <path id="WenQuanYiZenHei-5386" d="M 2819 663 
Q 3425 1488 3363 2738 
L 2800 2738 
Q 2400 2738 2000 2719 
Q 2025 2938 2000 3150 
Q 2400 3131 2800 3131 
L 3363 3131 
L 3363 3244 
Q 3363 3713 3338 4188 
Q 3594 4156 3850 4188 
Q 3825 3713 3825 3244 
L 3825 3131 
L 5525 3131 
L 5525 -38 
Q 5525 -313 5331 -494 
Q 5063 -738 4319 -731 
Q 4394 -406 4169 -163 
Q 4375 -188 4659 -191 
Q 4944 -194 5000 -150 
Q 5056 -106 5056 119 
L 5056 2738 
L 3825 2738 
Q 3888 1475 3300 544 
Q 2775 -313 1863 -738 
Q 1738 -456 1444 -369 
Q 2281 -88 2819 663 
z
M 169 -488 
Q 1044 131 1019 1638 
L 1025 4906 
L 5338 4900 
Q 5738 4900 6138 4925 
Q 6113 4706 6138 4488 
Q 5738 4506 5338 4506 
L 1488 4506 
L 1488 1638 
Q 1488 69 625 -756 
Q 450 -531 169 -488 
z
" transform="scale(0.015625)"/>
      <path id="WenQuanYiZenHei-53f2" d="M 2906 1688 
L 2906 2056 
L 1369 2056 
L 1369 1763 
L 913 1763 
L 913 4050 
L 2906 4050 
L 2906 4325 
Q 2906 4794 2881 5256 
Q 3138 5231 3388 5256 
Q 3363 4794 3363 4325 
L 3363 4050 
L 5325 4050 
L 5325 1763 
L 4869 1763 
L 4869 2056 
L 3363 2056 
L 3363 1688 
Q 3363 1069 2950 500 
Q 3675 -63 4484 -275 
Q 5294 -488 6056 -444 
Q 5894 -663 5906 -938 
Q 4188 -1000 2681 188 
Q 2281 -206 1737 -478 
Q 1194 -750 625 -838 
Q 563 -531 275 -394 
Q 856 -363 1403 -125 
Q 1950 113 2331 481 
Q 1806 956 1363 1550 
L 1700 1788 
Q 2138 1219 2600 794 
Q 2906 1231 2906 1688 
z
M 3363 2431 
L 4869 2431 
L 4869 3675 
L 3363 3675 
L 3363 2431 
z
M 2906 2431 
L 2906 3675 
L 1369 3675 
L 1369 2431 
L 2906 2431 
z
" transform="scale(0.015625)"/>
      <path id="WenQuanYiZenHei-8d70" d="M 1344 2069 
Q 1588 2044 1831 2069 
Q 1813 1638 1813 1406 
Q 1813 1175 1813 1144 
L 1875 1163 
Q 2125 400 2913 94 
L 2913 2450 
L 1163 2450 
Q 813 2450 463 2431 
Q 488 2619 463 2813 
Q 813 2794 1163 2794 
L 2919 2794 
L 2919 3775 
L 1781 3775 
Q 1431 3775 1081 3763 
Q 1100 3950 1081 4138 
Q 1431 4119 1781 4119 
L 2919 4119 
L 2919 4356 
Q 2919 4806 2900 5256 
Q 3144 5231 3388 5256 
Q 3363 4806 3363 4356 
L 3363 4119 
L 4594 4119 
Q 4944 4119 5294 4138 
Q 5275 3950 5294 3763 
Q 4944 3775 4594 3775 
L 3363 3775 
L 3363 2794 
L 5063 2794 
Q 5413 2794 5763 2813 
Q 5744 2619 5763 2431 
Q 5413 2450 5063 2450 
L 3356 2450 
L 3356 1363 
L 4606 1363 
Q 4956 1363 5306 1381 
Q 5288 1188 5306 1000 
Q 4956 1019 4606 1019 
L 3356 1019 
L 3356 -31 
Q 3981 -156 4556 -150 
L 5988 -200 
Q 5813 -406 5813 -675 
L 4506 -619 
Q 3563 -606 2819 -356 
Q 2100 -94 1700 506 
Q 1388 -394 575 -800 
Q 475 -544 225 -431 
Q 713 -275 1034 156 
Q 1356 588 1362 1103 
Q 1369 1619 1344 2069 
z
" transform="scale(0.015625)"/>
      <path id="WenQuanYiZenHei-52bf" d="M 1406 2413 
L 1406 3019 
Q 869 2788 356 2525 
Q 325 2813 144 3038 
Q 750 3138 1406 3356 
L 1406 4113 
L 900 4113 
Q 563 4113 231 4094 
Q 250 4275 231 4456 
Q 563 4438 900 4438 
L 1406 4438 
Q 1406 4869 1381 5294 
Q 1625 5269 1869 5294 
Q 1844 4869 1844 4438 
L 2081 4438 
Q 2419 4438 2750 4456 
Q 2731 4275 2750 4094 
Q 2419 4113 2081 4113 
L 1844 4113 
L 1844 3519 
L 2563 3806 
L 2594 3513 
L 1844 3206 
L 1844 2256 
Q 1844 1681 1063 1600 
L 869 1588 
Q 925 1888 744 2131 
Q 900 2106 1103 2103 
Q 1306 2100 1356 2137 
Q 1406 2175 1406 2413 
z
M 3550 3744 
L 3550 4244 
L 2850 4231 
Q 2869 4413 2850 4594 
L 3550 4575 
Q 3544 4944 3525 5306 
Q 3769 5281 4013 5306 
Q 3994 4944 3988 4575 
L 5075 4575 
L 5025 3631 
Q 5025 3456 5056 3109 
Q 5088 2763 5238 2528 
Q 5388 2294 5638 2206 
Q 5644 2681 5613 3150 
Q 5856 3125 6094 3150 
Q 6056 2544 6075 1938 
Q 6056 1756 5894 1719 
Q 5863 1706 5831 1694 
Q 5306 1769 4956 2166 
Q 4606 2563 4619 3081 
L 4638 3631 
L 4638 4244 
L 3988 4244 
L 3988 3744 
Q 3988 3419 3863 3106 
L 4513 2531 
L 4188 2175 
L 3625 2675 
Q 3163 2050 2363 1800 
Q 2300 2069 2063 2213 
Q 2450 2269 2765 2466 
Q 3081 2663 3288 2956 
L 2763 3363 
L 3050 3750 
L 3500 3400 
Q 3550 3575 3550 3744 
z
M 719 -931 
Q 650 -631 413 -506 
Q 1269 -425 2000 56 
Q 2563 419 2694 856 
L 1238 856 
Q 956 856 675 844 
Q 688 1006 675 1163 
Q 956 1150 1238 1150 
L 2738 1150 
L 2738 1850 
L 3150 1850 
L 3150 1150 
L 5269 1150 
L 5269 -363 
Q 5269 -563 5075 -731 
Q 4800 -944 4194 -938 
Q 4244 -600 4063 -406 
Q 4244 -431 4519 -434 
Q 4794 -438 4825 -406 
Q 4856 -375 4856 -294 
L 4856 856 
L 3119 856 
Q 2988 213 2259 -287 
Q 1531 -788 719 -931 
z
" transform="scale(0.015625)"/>
      <path id="WenQuanYiZenHei-8fd1" d="M 1256 3125 
L 913 3125 
Q 563 3125 213 3113 
Q 238 3300 213 3488 
Q 563 3469 913 3469 
L 1700 3469 
L 1700 469 
Q 2056 231 2288 131 
Q 2775 -88 3663 -69 
L 6025 -88 
Q 5788 -256 5800 -550 
L 3663 -556 
Q 2769 -556 2169 -281 
Q 1769 -100 1456 213 
L 425 -506 
Q 325 -281 175 -88 
L 1256 475 
L 1256 3125 
z
M 1594 4338 
L 1213 4038 
L 488 4963 
L 875 5263 
L 1594 4338 
z
M 1888 581 
Q 2613 1056 2613 2281 
L 2613 4631 
L 3056 4631 
Q 3344 4663 4062 4878 
Q 4781 5094 5206 5300 
Q 5250 5056 5344 4831 
Q 4256 4600 3150 4263 
L 3056 4238 
L 3056 3269 
L 5138 3269 
Q 5488 3269 5838 3281 
Q 5813 3094 5838 2906 
Q 5488 2919 5138 2919 
L 4594 2919 
L 4594 1119 
Q 4594 669 4619 213 
Q 4375 238 4125 213 
Q 4150 669 4150 1119 
L 4150 2919 
L 3056 2919 
L 3056 2281 
Q 3056 1000 2306 306 
Q 2150 525 1888 581 
z
" transform="scale(0.015625)"/>
      <path id="WenQuanYiZenHei-4e2a" d="M 3419 -769 
Q 3163 -744 2900 -769 
Q 2925 -288 2925 188 
L 2925 2263 
Q 2925 2744 2900 3225 
Q 3163 3200 3419 3225 
Q 3400 2744 3400 2263 
L 3400 188 
Q 3400 -288 3419 -769 
z
M 6125 2669 
Q 5894 2506 5819 2238 
Q 5019 2481 4347 3087 
Q 3675 3694 3213 4444 
Q 1988 2650 444 1781 
Q 331 2056 88 2213 
Q 1019 2694 1784 3441 
Q 2550 4188 3025 5206 
Q 3169 5106 3319 5031 
L 3356 5050 
L 3388 5000 
Q 3456 4963 3525 4931 
L 3469 4844 
Q 4019 3875 4744 3319 
Q 5356 2881 6125 2669 
z
" transform="scale(0.015625)"/>
      <path id="WenQuanYiZenHei-4ea4" d="M 6056 -494 
Q 5888 -706 5900 -981 
Q 5138 -1006 4419 -715 
Q 3700 -425 3125 163 
Q 2563 -356 1869 -656 
Q 1175 -956 425 -1000 
Q 444 -725 294 -481 
Q 1006 -444 1675 -190 
Q 2344 63 2838 488 
Q 2163 1344 1863 2569 
L 2263 2656 
Q 2544 1525 3138 781 
Q 3350 1025 3488 1294 
Q 3813 1944 4013 2700 
Q 4275 2619 4550 2588 
Q 4244 1369 3419 463 
Q 4019 -131 4919 -381 
Q 5456 -525 6056 -494 
z
M 5781 2375 
L 5438 2019 
L 4688 2706 
L 3906 3350 
L 4213 3738 
L 5013 3081 
L 5781 2375 
z
M 1956 3694 
Q 2150 3531 2369 3419 
Q 1719 2381 394 1863 
Q 344 2094 169 2256 
Q 744 2463 1150 2803 
Q 1556 3144 1956 3694 
z
M 6025 4144 
Q 6000 3944 6025 3750 
Q 5656 3769 5294 3769 
L 938 3769 
Q 575 3769 213 3750 
Q 231 3944 213 4144 
Q 575 4125 938 4125 
L 5294 4125 
Q 5656 4125 6025 4144 
z
M 3269 4138 
Q 2850 4631 2363 5056 
L 2694 5431 
Q 3206 4981 3650 4456 
L 3269 4138 
z
" transform="scale(0.015625)"/>
      <path id="WenQuanYiZenHei-6613" d="M 1838 2488 
L 1406 2488 
L 1406 5031 
L 5381 5031 
L 5381 2488 
L 4950 2488 
L 4950 2838 
L 2275 2838 
Q 2425 2750 2588 2688 
Q 2431 2375 2225 2100 
L 5950 2100 
L 5950 -206 
Q 5950 -438 5794 -575 
Q 5475 -850 4825 -819 
Q 4894 -513 4681 -288 
Q 4875 -313 5150 -316 
Q 5425 -319 5469 -281 
Q 5513 -244 5513 -94 
L 5513 1781 
L 4638 1781 
Q 4144 313 2894 -381 
Q 2400 -650 1838 -738 
Q 1831 -469 1669 -250 
Q 2194 -181 2669 44 
Q 3419 394 3763 975 
Q 3975 1369 4131 1781 
L 3219 1781 
Q 2975 1356 2644 994 
Q 1713 -13 456 -169 
Q 463 100 300 319 
Q 1644 488 2325 1288 
Q 2513 1525 2669 1781 
L 1950 1781 
Q 1325 1144 381 800 
Q 344 1031 175 1188 
Q 1081 1481 1606 2113 
Q 1888 2456 2119 2838 
Q 1981 2838 1838 2838 
L 1838 2488 
z
M 4950 4100 
L 4950 4713 
L 1838 4713 
Q 1838 4406 1838 4100 
L 4950 4100 
z
M 4950 3781 
L 1838 3781 
L 1838 3156 
L 4950 3156 
L 4950 3781 
z
" transform="scale(0.015625)"/>
      <path id="WenQuanYiZenHei-6536" d="M 2081 -769 
Q 1831 -744 1581 -769 
Q 1606 -313 1606 144 
L 1606 1281 
Q 1119 1113 394 744 
L 250 1175 
Q 313 1288 313 1425 
L 313 3106 
Q 313 3569 294 4025 
Q 544 4000 788 4025 
Q 769 3569 769 3106 
L 769 1375 
L 1606 1663 
L 1606 4119 
Q 1606 4575 1581 5038 
Q 1831 5006 2081 5038 
Q 2056 4575 2056 4119 
L 2056 144 
Q 2056 -313 2081 -769 
z
M 3375 5031 
Q 3625 4963 3913 4944 
Q 3781 4400 3613 3869 
L 3588 3781 
L 5200 3781 
Q 5563 3781 5925 3800 
Q 5906 3600 5925 3406 
L 5175 3419 
Q 5106 1925 4488 888 
Q 5125 106 6175 -306 
Q 5950 -438 5850 -694 
Q 4875 -288 4256 519 
Q 3575 -469 2406 -906 
Q 2338 -613 2144 -438 
Q 3338 -44 3981 913 
Q 3413 1806 3281 2963 
Q 3044 2381 2638 1806 
Q 2450 1981 2150 2025 
Q 2431 2406 2737 2937 
Q 3044 3469 3178 3991 
Q 3313 4513 3375 5031 
z
M 3663 3419 
Q 3675 2794 3831 2244 
Q 3988 1694 4206 1300 
Q 4650 2181 4681 3419 
L 3663 3419 
z
" transform="scale(0.015625)"/>
     </defs>
     <use xlink:href="#WenQuanYiZenHei-5c71"/>
     <use xlink:href="#WenQuanYiZenHei-4e1c" x="100"/>
     <use xlink:href="#WenQuanYiZenHei-5a01" x="200"/>
     <use xlink:href="#WenQuanYiZenHei-8fbe" x="300"/>
     <use xlink:href="#WenQuanYiZenHei-20" x="400"/>
     <use xlink:href="#WenQuanYiZenHei-7b79" x="429.980469"/>
     <use xlink:href="#WenQuanYiZenHei-7801" x="529.980469"/>
     <use xlink:href="#WenQuanYiZenHei-5206" x="629.980469"/>
     <use xlink:href="#WenQuanYiZenHei-5e03" x="729.980469"/>
     <use xlink:href="#WenQuanYiZenHei-5386" x="829.980469"/>
     <use xlink:href="#WenQuanYiZenHei-53f2" x="929.980469"/>
     <use xlink:href="#WenQuanYiZenHei-8d70" x="1029.980469"/>
     <use xlink:href="#WenQuanYiZenHei-52bf" x="1129.980469"/>
     <use xlink:href="#WenQuanYiZenHei-20" x="1229.980469"/>
     <use xlink:href="#WenQuanYiZenHei-28" x="1259.960938"/>
     <use xlink:href="#WenQuanYiZenHei-8fd1" x="1289.941406"/>
     <use xlink:href="#WenQuanYiZenHei-20" x="1389.941406"/>
     <use xlink:href="#WenQuanYiZenHei-31" x="1419.921875"/>
     <use xlink:href="#WenQuanYiZenHei-31" x="1479.882812"/>
     <use xlink:href="#WenQuanYiZenHei-20" x="1539.84375"/>
     <use xlink:href="#WenQuanYiZenHei-4e2a" x="1569.824219"/>
     <use xlink:href="#WenQuanYiZenHei-4ea4" x="1669.824219"/>
     <use xlink:href="#WenQuanYiZenHei-6613" x="1769.824219"/>
     <use xlink:href="#WenQuanYiZenHei-65e5" x="1869.824219"/>
     <use xlink:href="#WenQuanYiZenHei-6536" x="1969.824219"/>
     <use xlink:href="#WenQuanYiZenHei-76d8" x="2069.824219"/>
     <use xlink:href="#WenQuanYiZenHei-29" x="2169.824219"/>
    </g>
   </g>
  </g>
 </g>
 <defs>
  <clipPath id="p7a83462cc6">
   <rect x="52.1625" y="34.080312" width="653.42125" height="240.9025"/>
  </clipPath>
 </defs>
</svg>
